<?xml version="1.0" encoding="UTF-8"?>
<!DOCTYPE svg PUBLIC "-//W3C//DTD SVG 1.1//EN" "http://www.w3.org/Graphics/SVG/1.1/DTD/svg11.dtd">
<svg xmlns="http://www.w3.org/2000/svg" version="1.1" width="300px" height="300px" style="shape-rendering:geometricPrecision; text-rendering:geometricPrecision; image-rendering:optimizeQuality; fill-rule:evenodd; clip-rule:evenodd" xmlns:xlink="http://www.w3.org/1999/xlink">
<g><path style="opacity:0.919" fill="#d4dada" d="M 147.5,3.5 C 150.425,3.45982 153.091,4.29315 155.5,6C 195.336,29.4192 235.336,52.5859 275.5,75.5C 276.833,124.833 276.833,174.167 275.5,223.5C 233.734,247.938 191.734,271.938 149.5,295.5C 107.266,271.938 65.2659,247.938 23.5,223.5C 22.1667,174.167 22.1667,124.833 23.5,75.5C 65.1316,51.8361 106.465,27.8361 147.5,3.5 Z"/></g>
<g><path style="opacity:1" fill="#4c5662" d="M 162.5,19.5 C 162.062,19.4346 161.728,19.6012 161.5,20C 162.672,20.4186 163.672,21.0853 164.5,22C 155.544,28.6208 146.877,35.6208 138.5,43C 135.592,45.5688 133.092,48.4021 131,51.5C 129.867,49.7888 128.367,49.2888 126.5,50C 127.416,50.2784 128.082,50.7784 128.5,51.5C 127.5,51.5 126.5,51.5 125.5,51.5C 121.171,49.4591 116.838,49.1258 112.5,50.5C 111.859,51.4822 111.193,52.4822 110.5,53.5C 113.386,53.7104 116.386,53.8771 119.5,54C 120.38,55.3561 120.714,56.8561 120.5,58.5C 113.181,56.6808 109.681,59.3475 110,66.5C 110.717,67.0442 111.217,67.7109 111.5,68.5C 109.407,69.0447 107.407,69.878 105.5,71C 81.2938,92.2084 56.7938,113.042 32,133.5C 31.167,115.824 31.3337,98.1572 32.5,80.5C 33.5,80 34.5,79.5 35.5,79C 36.7383,78.31 36.7383,77.81 35.5,77.5C 73.2021,55.1639 111.202,33.1639 149.5,11.5C 154.065,13.9412 158.398,16.6079 162.5,19.5 Z"/></g>
<g><path style="opacity:1" fill="#47515d" d="M 162.5,19.5 C 172.833,24.6639 182.833,30.3305 192.5,36.5C 192.062,36.4346 191.728,36.6012 191.5,37C 192.833,38 194.167,39 195.5,40C 191.868,42.6298 188.535,45.6298 185.5,49C 183.981,48.6692 182.648,48.8359 181.5,49.5C 177.545,49.2783 173.878,50.6116 170.5,53.5C 169.509,57.4454 169.176,61.4454 169.5,65.5C 168.677,62.023 168.177,58.3563 168,54.5C 167.667,57.8333 167.333,61.1667 167,64.5C 166.208,62.4127 165.041,60.5793 163.5,59C 162.563,58.3083 161.897,58.475 161.5,59.5C 159.034,59.1013 157.034,57.9347 155.5,56C 157.184,53.2935 159.517,52.7935 162.5,54.5C 163.833,53.5 163.833,52.5 162.5,51.5C 159.916,50.6072 157.249,50.2739 154.5,50.5C 152.326,50.7497 150.659,51.7497 149.5,53.5C 149.052,51.5354 148.052,51.2021 146.5,52.5C 145.18,56.1138 144.013,59.7805 143,63.5C 141.846,59.553 141.013,55.553 140.5,51.5C 138.833,51.5 137.167,51.5 135.5,51.5C 134.201,66.613 132.368,66.9463 130,52.5C 129.617,51.944 129.117,51.6107 128.5,51.5C 128.082,50.7784 127.416,50.2784 126.5,50C 128.367,49.2888 129.867,49.7888 131,51.5C 133.092,48.4021 135.592,45.5688 138.5,43C 146.877,35.6208 155.544,28.6208 164.5,22C 163.672,21.0853 162.672,20.4186 161.5,20C 161.728,19.6012 162.062,19.4346 162.5,19.5 Z"/></g>
<g><path style="opacity:1" fill="#404a58" d="M 192.5,36.5 C 203.699,42.5958 214.699,48.9291 225.5,55.5C 225.062,55.4346 224.728,55.6012 224.5,56C 225.328,56.9147 226.328,57.5814 227.5,58C 215.667,67.8333 203.833,77.6667 192,87.5C 191.667,83.1667 191.333,78.8333 191,74.5C 190.83,80.5275 190.33,86.5275 189.5,92.5C 188.893,92.3764 188.56,92.0431 188.5,91.5C 189.816,85.9871 189.816,80.3204 188.5,74.5C 187.692,76.4233 187.192,78.4233 187,80.5C 180.471,78.8654 177.971,81.5321 179.5,88.5C 178.691,86.7078 178.191,84.7078 178,82.5C 177.921,84.7364 177.421,86.0697 176.5,86.5C 177.487,80.6688 175.154,78.5022 169.5,80C 167.238,83.2691 166.905,86.7691 168.5,90.5C 167.957,90.56 167.624,90.8933 167.5,91.5C 168.811,92.2575 169.311,93.2575 169,94.5C 165.308,97.3648 161.808,100.365 158.5,103.5C 146.167,103.5 133.833,103.5 121.5,103.5C 124.8,100.173 128.133,96.84 131.5,93.5C 132.325,92.6143 133.325,92.281 134.5,92.5C 134.5,89.1667 134.5,85.8333 134.5,82.5C 135.317,84.9686 135.817,87.6353 136,90.5C 139.045,88.2807 140.211,85.2807 139.5,81.5C 141.237,84.008 142.07,87.008 142,90.5C 143.388,91.5536 144.888,91.7203 146.5,91C 145.552,90.5172 144.552,90.3505 143.5,90.5C 143.5,87.5 143.5,84.5 143.5,81.5C 144.5,81.5 145.5,81.5 146.5,81.5C 147.222,81.0825 147.722,80.4158 148,79.5C 148.499,83.4862 148.666,87.4862 148.5,91.5C 149.5,91.5 150.5,91.5 151.5,91.5C 151.183,87.2984 151.517,83.2984 152.5,79.5C 153.891,83.47 154.891,87.47 155.5,91.5C 156.479,88.3752 156.813,85.0419 156.5,81.5C 158.5,81.5 160.5,81.5 162.5,81.5C 162.18,84.8984 162.513,88.2317 163.5,91.5C 164.491,87.5546 164.824,83.5546 164.5,79.5C 161.833,79.5 159.167,79.5 156.5,79.5C 156.325,76.6711 157.658,75.0045 160.5,74.5C 159.311,73.5713 157.978,73.238 156.5,73.5C 156.611,72.8826 156.944,72.3826 157.5,72C 154.692,71.402 152.192,70.2353 150,68.5C 149.405,67.1011 149.572,65.7678 150.5,64.5C 149.007,63.8589 148.007,62.8589 147.5,61.5C 148.167,58.8333 148.833,56.1667 149.5,53.5C 150.659,51.7497 152.326,50.7497 154.5,50.5C 151.851,52.5586 151.018,55.2253 152,58.5C 155.275,60.4135 158.441,62.4135 161.5,64.5C 158.737,66.6813 155.737,67.0146 152.5,65.5C 151.167,66.5 151.167,67.5 152.5,68.5C 155.438,69.5748 158.438,69.7415 161.5,69C 165.473,65.7064 165.473,62.5397 161.5,59.5C 161.897,58.475 162.563,58.3083 163.5,59C 165.041,60.5793 166.208,62.4127 167,64.5C 167.333,61.1667 167.667,57.8333 168,54.5C 168.177,58.3563 168.677,62.023 169.5,65.5C 172.531,67.8355 175.865,69.8355 179.5,71.5C 182.751,69.625 185.918,67.625 189,65.5C 191.347,57.5748 188.847,52.2415 181.5,49.5C 182.648,48.8359 183.981,48.6692 185.5,49C 188.535,45.6298 191.868,42.6298 195.5,40C 194.167,39 192.833,38 191.5,37C 191.728,36.6012 192.062,36.4346 192.5,36.5 Z"/></g>
<g><path style="opacity:1" fill="#e7e8ea" d="M 112.5,50.5 C 121.618,48.7119 125.618,52.3785 124.5,61.5C 124.614,64.3636 124.114,67.0302 123,69.5C 122.311,68.6433 121.478,67.9767 120.5,67.5C 117.705,69.688 114.705,70.0214 111.5,68.5C 111.217,67.7109 110.717,67.0442 110,66.5C 109.681,59.3475 113.181,56.6808 120.5,58.5C 120.714,56.8561 120.38,55.3561 119.5,54C 116.386,53.8771 113.386,53.7104 110.5,53.5C 111.193,52.4822 111.859,51.4822 112.5,50.5 Z"/></g>
<g><path style="opacity:1" fill="#eaeced" d="M 125.5,51.5 C 126.5,51.5 127.5,51.5 128.5,51.5C 129.117,51.6107 129.617,51.944 130,52.5C 132.368,66.9463 134.201,66.613 135.5,51.5C 137.167,51.5 138.833,51.5 140.5,51.5C 141.013,55.553 141.846,59.553 143,63.5C 144.013,59.7805 145.18,56.1138 146.5,52.5C 148.052,51.2021 149.052,51.5354 149.5,53.5C 148.833,56.1667 148.167,58.8333 147.5,61.5C 146.076,63.5145 145.41,65.8478 145.5,68.5C 143.833,68.5 142.167,68.5 140.5,68.5C 140.192,64.4052 139.359,60.4052 138,56.5C 136.68,60.1138 135.513,63.7805 134.5,67.5C 133.167,68.8333 131.833,68.8333 130.5,67.5C 129.083,62.0691 127.416,56.7358 125.5,51.5 Z"/></g>
<g><path style="opacity:1" fill="#ebecee" d="M 154.5,50.5 C 157.249,50.2739 159.916,50.6072 162.5,51.5C 163.833,52.5 163.833,53.5 162.5,54.5C 159.517,52.7935 157.184,53.2935 155.5,56C 157.034,57.9347 159.034,59.1013 161.5,59.5C 165.473,62.5397 165.473,65.7064 161.5,69C 158.438,69.7415 155.438,69.5748 152.5,68.5C 151.167,67.5 151.167,66.5 152.5,65.5C 155.737,67.0146 158.737,66.6813 161.5,64.5C 158.441,62.4135 155.275,60.4135 152,58.5C 151.018,55.2253 151.851,52.5586 154.5,50.5 Z"/></g>
<g><path style="opacity:1" fill="#f5981d" d="M 181.5,49.5 C 188.847,52.2415 191.347,57.5748 189,65.5C 185.918,67.625 182.751,69.625 179.5,71.5C 175.865,69.8355 172.531,67.8355 169.5,65.5C 169.176,61.4454 169.509,57.4454 170.5,53.5C 173.878,50.6116 177.545,49.2783 181.5,49.5 Z"/></g>
<g><path style="opacity:1" fill="#fef6ed" d="M 182.5,55.5 C 183.756,55.4614 184.756,55.9614 185.5,57C 182.616,60.5856 179.283,63.2522 175.5,65C 172.807,61.7155 173.474,60.3821 177.5,61C 179.373,59.2962 181.04,57.4628 182.5,55.5 Z"/></g>
<g><path style="opacity:1" fill="#48525f" d="M 112.5,50.5 C 116.838,49.1258 121.171,49.4591 125.5,51.5C 127.416,56.7358 129.083,62.0691 130.5,67.5C 131.833,68.8333 133.167,68.8333 134.5,67.5C 135.513,63.7805 136.68,60.1138 138,56.5C 139.359,60.4052 140.192,64.4052 140.5,68.5C 142.167,68.5 143.833,68.5 145.5,68.5C 145.41,65.8478 146.076,63.5145 147.5,61.5C 148.007,62.8589 149.007,63.8589 150.5,64.5C 149.572,65.7678 149.405,67.1011 150,68.5C 152.192,70.2353 154.692,71.402 157.5,72C 156.944,72.3826 156.611,72.8826 156.5,73.5C 156.167,74.1667 155.833,74.8333 155.5,75.5C 154.978,77.2191 153.978,78.5525 152.5,79.5C 151.517,83.2984 151.183,87.2984 151.5,91.5C 150.5,91.5 149.5,91.5 148.5,91.5C 148.666,87.4862 148.499,83.4862 148,79.5C 147.722,80.4158 147.222,81.0825 146.5,81.5C 146.179,79.9519 145.179,79.2852 143.5,79.5C 143.719,78.325 143.386,77.325 142.5,76.5C 141.305,78.1206 140.305,79.7872 139.5,81.5C 140.211,85.2807 139.045,88.2807 136,90.5C 135.817,87.6353 135.317,84.9686 134.5,82.5C 134.5,85.8333 134.5,89.1667 134.5,92.5C 133.325,92.281 132.325,92.6143 131.5,93.5C 128.133,96.84 124.8,100.173 121.5,103.5C 106.657,103.171 91.9905,103.504 77.5,104.5C 77.5,105.167 77.5,105.833 77.5,106.5C 89.989,107.495 102.656,107.829 115.5,107.5C 99.6909,121.135 83.6909,134.635 67.5,148C 66.6634,149.011 66.33,150.178 66.5,151.5C 64.2166,151.608 62.2166,152.441 60.5,154C 50.9606,162.377 41.2939,170.544 31.5,178.5C 31.6666,163.83 31.4999,149.163 31,134.5C 30.5,162.498 30.3334,190.498 30.5,218.5C 29.3351,172.668 29.1685,126.668 30,80.5C 31.7804,79.3606 33.6137,78.3606 35.5,77.5C 36.7383,77.81 36.7383,78.31 35.5,79C 34.5,79.5 33.5,80 32.5,80.5C 31.3337,98.1572 31.167,115.824 32,133.5C 56.7938,113.042 81.2938,92.2084 105.5,71C 107.407,69.878 109.407,69.0447 111.5,68.5C 114.705,70.0214 117.705,69.688 120.5,67.5C 121.478,67.9767 122.311,68.6433 123,69.5C 124.114,67.0302 124.614,64.3636 124.5,61.5C 125.618,52.3785 121.618,48.7119 112.5,50.5 Z"/></g>
<g><path style="opacity:1" fill="#3b4653" d="M 225.5,55.5 C 232.032,58.9292 238.366,62.5959 244.5,66.5C 243.262,66.81 243.262,67.31 244.5,68C 246.332,68.7485 247.999,69.7485 249.5,71C 236.833,81.6667 224.167,92.3333 211.5,103C 193.836,103.5 176.17,103.667 158.5,103.5C 161.808,100.365 165.308,97.3648 169,94.5C 169.311,93.2575 168.811,92.2575 167.5,91.5C 167.624,90.8933 167.957,90.56 168.5,90.5C 170.996,92.8289 173.663,92.9956 176.5,91C 172.863,91.3156 170.196,89.9823 168.5,87C 171.146,86.5026 173.813,86.3359 176.5,86.5C 177.421,86.0697 177.921,84.7364 178,82.5C 178.191,84.7078 178.691,86.7078 179.5,88.5C 181.469,92.4899 184.469,93.4899 188.5,91.5C 188.56,92.0431 188.893,92.3764 189.5,92.5C 190.33,86.5275 190.83,80.5275 191,74.5C 191.333,78.8333 191.667,83.1667 192,87.5C 203.833,77.6667 215.667,67.8333 227.5,58C 226.328,57.5814 225.328,56.9147 224.5,56C 224.728,55.6012 225.062,55.4346 225.5,55.5 Z"/></g>
<g><path style="opacity:1" fill="#414b58" d="M 114.5,61.5 C 116.5,61.5 118.5,61.5 120.5,61.5C 120.2,65.9764 118.033,67.3097 114,65.5C 113.421,64.0715 113.588,62.7382 114.5,61.5 Z"/></g>
<g><path style="opacity:1" fill="#cccfd3" d="M 148.5,75.5 C 150.337,75.6395 150.67,76.3061 149.5,77.5C 148.702,77.0431 148.369,76.3764 148.5,75.5 Z"/></g>
<g><path style="opacity:1" fill="#e6e7e9" d="M 162.5,75.5 C 164.337,75.6395 164.67,76.3061 163.5,77.5C 162.702,77.0431 162.369,76.3764 162.5,75.5 Z"/></g>
<g><path style="opacity:1" fill="#343f4c" d="M 244.5,66.5 C 252.782,70.8031 260.782,75.4698 268.5,80.5C 267.504,93.6562 267.171,106.99 267.5,120.5C 253.706,131.789 240.04,143.289 226.5,155C 224.618,155.198 222.952,155.698 221.5,156.5C 221.5,157.167 221.5,157.833 221.5,158.5C 220.279,157.972 219.113,157.305 218,156.5C 217.601,156.728 217.435,157.062 217.5,157.5C 212.983,155.667 208.983,156.334 205.5,159.5C 203.903,158.322 201.903,156.822 199.5,155C 197.365,154.365 195.365,154.699 193.5,156C 193.728,156.399 194.062,156.565 194.5,156.5C 194.217,157.289 193.717,157.956 193,158.5C 191.599,156.808 189.766,156.141 187.5,156.5C 187.5,161.833 187.5,167.167 187.5,172.5C 187.649,173.552 187.483,174.552 187,175.5C 183.5,178.333 180,181.167 176.5,184C 165.659,184.17 154.992,184.67 144.5,185.5C 121.758,185.833 99.7578,185.499 78.5,184.5C 93.5037,184.667 108.504,184.5 123.5,184C 127.167,181 130.833,178 134.5,175C 127.483,173.304 124.816,168.804 126.5,161.5C 127.167,164.167 127.833,166.833 128.5,169.5C 128.953,170.458 129.619,171.292 130.5,172C 133.039,172.796 135.372,172.629 137.5,171.5C 138.167,170.5 138.833,169.5 139.5,168.5C 139.5,169.833 139.5,171.167 139.5,172.5C 141.735,172.795 143.735,172.461 145.5,171.5C 145.5,166.833 145.5,162.167 145.5,157.5C 144.081,156.549 142.415,156.216 140.5,156.5C 140.5,156.167 140.5,155.833 140.5,155.5C 142.698,155.88 144.365,155.213 145.5,153.5C 146.222,153.082 146.722,152.416 147,151.5C 147.484,153.178 148.317,153.844 149.5,153.5C 149.523,155.6 148.856,157.433 147.5,159C 149.094,162.636 149.928,166.469 150,170.5C 152.698,172.673 155.531,173.006 158.5,171.5C 159.167,170.5 159.833,169.5 160.5,168.5C 160.5,169.833 160.5,171.167 160.5,172.5C 162.5,172.5 164.5,172.5 166.5,172.5C 166.5,167.167 166.5,161.833 166.5,156.5C 164.833,156.5 163.167,156.5 161.5,156.5C 161.5,156.167 161.5,155.833 161.5,155.5C 163.698,155.88 165.365,155.213 166.5,153.5C 169.826,151.583 173.159,148.917 176.5,145.5C 174.658,144.158 173.158,142.491 172,140.5C 171.667,141.167 171.333,141.833 171,142.5C 170.333,137.5 170.333,132.5 171,127.5C 171.513,128.527 172.013,129.527 172.5,130.5C 172.043,134.584 172.71,138.417 174.5,142C 175.729,142.781 177.062,143.281 178.5,143.5C 181.449,142.698 184.449,142.364 187.5,142.5C 188.492,135.352 188.825,128.019 188.5,120.5C 189.117,120.611 189.617,120.944 190,121.5C 195.167,117 200.333,112.5 205.5,108C 188.17,107.5 170.837,107.333 153.5,107.5C 140.833,107.5 128.167,107.5 115.5,107.5C 102.656,107.829 89.989,107.495 77.5,106.5C 270.833,105.833 270.833,105.167 77.5,104.5C 91.9905,103.504 106.657,103.171 121.5,103.5C 133.833,103.5 146.167,103.5 158.5,103.5C 176.17,103.667 193.836,103.5 211.5,103C 224.167,92.3333 236.833,81.6667 249.5,71C 247.999,69.7485 246.332,68.7485 244.5,68C 243.262,67.31 243.262,66.81 244.5,66.5 Z"/></g>
<g><path style="opacity:1" fill="#dddee1" d="M 146.5,81.5 C 145.5,81.5 144.5,81.5 143.5,81.5C 143.5,84.5 143.5,87.5 143.5,90.5C 144.552,90.3505 145.552,90.5172 146.5,91C 144.888,91.7203 143.388,91.5536 142,90.5C 142.07,87.008 141.237,84.008 139.5,81.5C 140.305,79.7872 141.305,78.1206 142.5,76.5C 143.386,77.325 143.719,78.325 143.5,79.5C 145.179,79.2852 146.179,79.9519 146.5,81.5 Z"/></g>
<g><path style="opacity:1" fill="#d8dbdd" d="M 176.5,86.5 C 173.813,86.3359 171.146,86.5026 168.5,87C 170.196,89.9823 172.863,91.3156 176.5,91C 173.663,92.9956 170.996,92.8289 168.5,90.5C 166.905,86.7691 167.238,83.2691 169.5,80C 175.154,78.5022 177.487,80.6688 176.5,86.5 Z"/></g>
<g><path style="opacity:1" fill="#f8f8f9" d="M 134.5,82.5 C 133.681,85.3054 133.181,88.3054 133,91.5C 132.501,87.8484 132.335,84.1817 132.5,80.5C 133.93,80.5792 135.264,80.2458 136.5,79.5C 136.833,79.8333 137.167,80.1667 137.5,80.5C 136.398,81.1757 135.398,81.8423 134.5,82.5 Z"/></g>
<g><path style="opacity:1" fill="#dcdee0" d="M 156.5,73.5 C 157.978,73.238 159.311,73.5713 160.5,74.5C 157.658,75.0045 156.325,76.6711 156.5,79.5C 159.167,79.5 161.833,79.5 164.5,79.5C 164.824,83.5546 164.491,87.5546 163.5,91.5C 162.513,88.2317 162.18,84.8984 162.5,81.5C 160.5,81.5 158.5,81.5 156.5,81.5C 156.813,85.0419 156.479,88.3752 155.5,91.5C 155.5,86.1667 155.5,80.8333 155.5,75.5C 155.833,74.8333 156.167,74.1667 156.5,73.5 Z"/></g>
<g><path style="opacity:1" fill="#d9dbde" d="M 122.5,79.5 C 127.833,78.8333 130.167,81.1667 129.5,86.5C 126.833,86.5 124.167,86.5 121.5,86.5C 121.33,87.8221 121.663,88.9887 122.5,90C 124.5,90.3333 126.5,90.6667 128.5,91C 125.243,93.2162 122.41,92.7162 120,89.5C 118.861,85.5789 119.695,82.2456 122.5,79.5 Z"/></g>
<g><path style="opacity:1" fill="#2f3a48" d="M 122.5,81.5 C 124.167,81.5 125.833,81.5 127.5,81.5C 127.5,82.5 127.5,83.5 127.5,84.5C 125.396,84.7989 123.396,84.4656 121.5,83.5C 121.863,82.8165 122.196,82.1499 122.5,81.5 Z"/></g>
<g><path style="opacity:1" fill="#a3a8ae" d="M 155.5,75.5 C 155.5,80.8333 155.5,86.1667 155.5,91.5C 154.891,87.47 153.891,83.47 152.5,79.5C 153.978,78.5525 154.978,77.2191 155.5,75.5 Z"/></g>
<g><path style="opacity:1" fill="#283442" d="M 169.5,81.5 C 171.977,81.0508 173.977,81.7175 175.5,83.5C 173.235,84.6474 170.902,84.8141 168.5,84C 169.252,83.3292 169.586,82.4959 169.5,81.5 Z"/></g>
<g><path style="opacity:1" fill="#e3e5e7" d="M 112.5,79.5 C 119.136,80.0218 119.136,80.8551 112.5,82C 110.321,87.2569 111.988,90.2569 117.5,91C 110.495,92.3236 107.995,89.4902 110,82.5C 111.045,81.6266 111.878,80.6266 112.5,79.5 Z"/></g>
<g><path style="opacity:1" fill="#e3e4e6" d="M 188.5,91.5 C 184.469,93.4899 181.469,92.4899 179.5,88.5C 177.971,81.5321 180.471,78.8654 187,80.5C 187.192,78.4233 187.692,76.4233 188.5,74.5C 189.816,80.3204 189.816,85.9871 188.5,91.5 Z"/></g>
<g><path style="opacity:1" fill="#384350" d="M 182.5,81.5 C 184.167,81.5 185.833,81.5 187.5,81.5C 187.664,84.1873 187.497,86.854 187,89.5C 181.812,90.9798 179.812,88.9798 181,83.5C 181.717,82.9558 182.217,82.2891 182.5,81.5 Z"/></g>
<g><path style="opacity:1" fill="#c0c3c7" d="M 77.5,104.5 C 270.833,105.167 270.833,105.833 77.5,106.5C 77.5,105.833 77.5,105.167 77.5,104.5 Z"/></g>
<g><path style="opacity:1" fill="#f9f9f9" d="M 127.5,121.5 C 129.167,121.5 130.833,121.5 132.5,121.5C 132.178,127.358 132.511,133.025 133.5,138.5C 135.71,139.455 136.043,140.955 134.5,143C 131.386,144.087 129.053,143.254 127.5,140.5C 127.5,134.167 127.5,127.833 127.5,121.5 Z"/></g>
<g><path style="opacity:1" fill="#a2a7ad" d="M 127.5,121.5 C 129.265,120.539 131.265,120.205 133.5,120.5C 133.5,126.5 133.5,132.5 133.5,138.5C 132.511,133.025 132.178,127.358 132.5,121.5C 130.833,121.5 129.167,121.5 127.5,121.5 Z"/></g>
<g><path style="opacity:1" fill="#f3f4f4" d="M 187.5,142.5 C 184.449,142.364 181.449,142.698 178.5,143.5C 177.062,143.281 175.729,142.781 174.5,142C 172.71,138.417 172.043,134.584 172.5,130.5C 173.962,129.542 175.295,128.376 176.5,127C 178.265,126.36 179.932,126.527 181.5,127.5C 182.461,125.735 182.795,123.735 182.5,121.5C 184.167,121.5 185.833,121.5 187.5,121.5C 187.5,128.5 187.5,135.5 187.5,142.5 Z"/></g>
<g><path style="opacity:1" fill="#f2f3f4" d="M 117.5,127.5 C 116.883,127.611 116.383,127.944 116,128.5C 115.333,131.167 115.333,133.833 116,136.5C 116.383,137.056 116.883,137.389 117.5,137.5C 119.607,138.468 121.941,138.802 124.5,138.5C 124.5,139.833 124.5,141.167 124.5,142.5C 118.104,144.914 113.104,143.247 109.5,137.5C 107.283,126.563 111.617,121.397 122.5,122C 124.107,123.049 124.773,124.549 124.5,126.5C 121.941,126.198 119.607,126.532 117.5,127.5 Z"/></g>
<g><path style="opacity:1" fill="#878e96" d="M 188.5,120.5 C 188.825,128.019 188.492,135.352 187.5,142.5C 187.5,135.5 187.5,128.5 187.5,121.5C 185.833,121.5 184.167,121.5 182.5,121.5C 182.795,123.735 182.461,125.735 181.5,127.5C 181.5,125.167 181.5,122.833 181.5,120.5C 183.833,120.5 186.167,120.5 188.5,120.5 Z"/></g>
<g><path style="opacity:1" fill="#2e3947" d="M 178.5,131.5 C 179.833,131.5 181.167,131.5 182.5,131.5C 182.5,133.833 182.5,136.167 182.5,138.5C 181.167,138.5 179.833,138.5 178.5,138.5C 178.5,136.167 178.5,133.833 178.5,131.5 Z"/></g>
<g><path style="opacity:1" fill="#3b4553" d="M 153.5,107.5 C 170.837,107.333 188.17,107.5 205.5,108C 200.333,112.5 195.167,117 190,121.5C 189.617,120.944 189.117,120.611 188.5,120.5C 186.167,120.5 183.833,120.5 181.5,120.5C 181.5,122.833 181.5,125.167 181.5,127.5C 179.932,126.527 178.265,126.36 176.5,127C 175.295,128.376 173.962,129.542 172.5,130.5C 172.013,129.527 171.513,128.527 171,127.5C 170.333,132.5 170.333,137.5 171,142.5C 171.333,141.833 171.667,141.167 172,140.5C 173.158,142.491 174.658,144.158 176.5,145.5C 173.159,148.917 169.826,151.583 166.5,153.5C 166.592,149.929 164.926,148.762 161.5,150C 160.248,151.828 160.248,153.661 161.5,155.5C 161.5,155.833 161.5,156.167 161.5,156.5C 160.517,160.298 160.183,164.298 160.5,168.5C 159.833,169.5 159.167,170.5 158.5,171.5C 158.5,170.5 158.5,169.5 158.5,168.5C 157.178,168.67 156.011,168.337 155,167.5C 154.503,165.19 154.337,162.857 154.5,160.5C 155.833,160.5 157.167,160.5 158.5,160.5C 158.5,159.5 158.5,158.5 158.5,157.5C 157.167,157.5 155.833,157.5 154.5,157.5C 154.5,155.833 154.5,154.167 154.5,152.5C 152.708,152.366 151.042,152.699 149.5,153.5C 148.317,153.844 147.484,153.178 147,151.5C 146.722,152.416 146.222,153.082 145.5,153.5C 145.592,149.929 143.926,148.762 140.5,150C 139.248,151.828 139.248,153.661 140.5,155.5C 140.5,155.833 140.5,156.167 140.5,156.5C 139.517,160.298 139.183,164.298 139.5,168.5C 138.833,169.5 138.167,170.5 137.5,171.5C 137.5,170.5 137.5,169.5 137.5,168.5C 136.178,168.67 135.011,168.337 134,167.5C 133.503,165.19 133.337,162.857 133.5,160.5C 134.833,160.5 136.167,160.5 137.5,160.5C 137.5,159.167 137.5,157.833 137.5,156.5C 136.5,156.5 135.5,156.5 134.5,156.5C 134.592,152.929 132.926,151.762 129.5,153C 129.085,155.026 128.085,156.526 126.5,157.5C 126.167,157.5 125.833,157.5 125.5,157.5C 115.163,155.005 111.33,159.005 114,169.5C 116.909,172.394 120.409,173.227 124.5,172C 125.337,170.989 125.67,169.822 125.5,168.5C 120.499,169.329 118.332,167.329 119,162.5C 119.383,161.944 119.883,161.611 120.5,161.5C 122.5,161.5 124.5,161.5 126.5,161.5C 124.816,168.804 127.483,173.304 134.5,175C 130.833,178 127.167,181 123.5,184C 108.504,184.5 93.5037,184.667 78.5,184.5C 81.5675,181.118 84.9008,177.952 88.5,175C 86.563,174.878 85.2297,174.045 84.5,172.5C 86.5,172.5 88.5,172.5 90.5,172.5C 91.4794,169.375 91.8128,166.042 91.5,162.5C 93.1667,162.5 94.8333,162.5 96.5,162.5C 96.2475,159.68 96.7475,157.014 98,154.5C 102.546,150.286 107.379,146.453 112.5,143C 111,142.167 109.833,141 109,139.5C 108.308,138.563 108.475,137.897 109.5,137.5C 113.104,143.247 118.104,144.914 124.5,142.5C 125.451,141.081 125.784,139.415 125.5,137.5C 122.833,137.5 120.167,137.5 117.5,137.5C 116.883,137.389 116.383,137.056 116,136.5C 115.333,133.833 115.333,131.167 116,128.5C 116.383,127.944 116.883,127.611 117.5,127.5C 120.167,127.5 122.833,127.5 125.5,127.5C 125.34,125.801 125.506,124.134 126,122.5C 126.172,128.681 126.672,134.681 127.5,140.5C 129.053,143.254 131.386,144.087 134.5,143C 136.043,140.955 135.71,139.455 133.5,138.5C 133.5,132.5 133.5,126.5 133.5,120.5C 134.268,121.263 134.768,122.263 135,123.5C 141.064,117.928 147.231,112.595 153.5,107.5 Z"/></g>
<g><path style="opacity:1" fill="#9399a0" d="M 117.5,137.5 C 120.167,137.5 122.833,137.5 125.5,137.5C 125.784,139.415 125.451,141.081 124.5,142.5C 124.5,141.167 124.5,139.833 124.5,138.5C 121.941,138.802 119.607,138.468 117.5,137.5 Z"/></g>
<g><path style="opacity:1" fill="#f5f5f6" d="M 154.5,127.5 C 156.5,127.5 158.5,127.5 160.5,127.5C 160.5,131.167 160.5,134.833 160.5,138.5C 161.833,138.5 163.167,138.5 164.5,138.5C 164.5,134.833 164.5,131.167 164.5,127.5C 166.167,127.5 167.833,127.5 169.5,127.5C 169.5,132.5 169.5,137.5 169.5,142.5C 167.738,142.643 166.071,142.309 164.5,141.5C 161.005,144.368 157.838,144.035 155,140.5C 154.501,136.179 154.334,131.846 154.5,127.5 Z"/></g>
<g><path style="opacity:1" fill="#f3f3f4" d="M 140.5,127.5 C 144.257,127.071 147.757,127.737 151,129.5C 154.441,136.946 152.275,141.613 144.5,143.5C 137.727,142.303 135.227,138.303 137,131.5C 138.032,129.973 139.199,128.64 140.5,127.5 Z"/></g>
<g><path style="opacity:1" fill="#3b4553" d="M 143.5,131.5 C 144.5,131.5 145.5,131.5 146.5,131.5C 146.663,133.857 146.497,136.19 146,138.5C 143.355,139.708 142.188,138.708 142.5,135.5C 142.623,134.075 142.957,132.742 143.5,131.5 Z"/></g>
<g><path style="opacity:1" fill="#ecedee" d="M 145.5,153.5 C 144.365,155.213 142.698,155.88 140.5,155.5C 139.248,153.661 139.248,151.828 140.5,150C 143.926,148.762 145.592,149.929 145.5,153.5 Z"/></g>
<g><path style="opacity:1" fill="#ebecee" d="M 166.5,153.5 C 165.365,155.213 163.698,155.88 161.5,155.5C 160.248,153.661 160.248,151.828 161.5,150C 164.926,148.762 166.592,149.929 166.5,153.5 Z"/></g>
<g><path style="opacity:1" fill="#2c3746" d="M 267.5,120.5 C 267.667,137.503 267.5,154.503 267,171.5C 257.5,179.667 248,187.833 238.5,196C 236.079,198.094 233.412,199.76 230.5,201C 232.058,201.21 233.391,201.71 234.5,202.5C 233.5,202.5 232.5,202.5 231.5,202.5C 231.167,202.5 230.833,202.5 230.5,202.5C 228.583,203.909 226.75,205.576 225,207.5C 224.138,205.913 223.471,204.246 223,202.5C 221.534,200.675 219.701,200.175 217.5,201C 218.737,201.232 219.737,201.732 220.5,202.5C 219.178,202.33 218.011,202.663 217,203.5C 215.726,207.154 214.56,210.82 213.5,214.5C 213.67,215.822 213.337,216.989 212.5,218C 190.352,236.905 168.018,255.571 145.5,274C 142.906,276.086 140.906,278.586 139.5,281.5C 131.032,277.099 122.699,272.432 114.5,267.5C 114.56,266.957 114.893,266.624 115.5,266.5C 118.919,268.626 122.419,270.626 126,272.5C 148.288,252.428 171.121,232.928 194.5,214C 194.827,209.786 195.827,205.952 197.5,202.5C 197.5,206.5 197.5,210.5 197.5,214.5C 198.5,214.5 199.5,214.5 200.5,214.5C 199.906,206.898 201.24,206.565 204.5,213.5C 205.689,214.429 207.022,214.762 208.5,214.5C 208.5,210.5 208.5,206.5 208.5,202.5C 212.972,198.199 217.639,194.032 222.5,190C 209.838,189.5 197.171,189.333 184.5,189.5C 166.992,189.83 149.659,189.497 132.5,188.5C 162.5,188.5 192.5,188.5 222.5,188.5C 222.5,187.5 222.5,186.5 222.5,185.5C 196.5,185.5 170.5,185.5 144.5,185.5C 154.992,184.67 165.659,184.17 176.5,184C 180,181.167 183.5,178.333 187,175.5C 187.483,174.552 187.649,173.552 187.5,172.5C 189.5,172.5 191.5,172.5 193.5,172.5C 193.5,168.5 193.5,164.5 193.5,160.5C 194.5,160.5 195.5,160.5 196.5,160.5C 196.5,164.5 196.5,168.5 196.5,172.5C 198.5,172.5 200.5,172.5 202.5,172.5C 202.666,167.821 202.499,163.155 202,158.5C 199.865,156.722 197.365,156.055 194.5,156.5C 194.062,156.565 193.728,156.399 193.5,156C 195.365,154.699 197.365,154.365 199.5,155C 201.903,156.822 203.903,158.322 205.5,159.5C 203.19,169.69 207.19,173.857 217.5,172C 218.337,170.989 218.67,169.822 218.5,168.5C 215.603,168.875 212.937,168.375 210.5,167C 219.347,168.337 221.68,165.171 217.5,157.5C 217.435,157.062 217.601,156.728 218,156.5C 219.113,157.305 220.279,157.972 221.5,158.5C 221.5,163.167 221.5,167.833 221.5,172.5C 223.5,172.5 225.5,172.5 227.5,172.5C 227.5,169.167 227.5,165.833 227.5,162.5C 228.919,161.549 230.585,161.216 232.5,161.5C 232.5,159.833 232.5,158.167 232.5,156.5C 230.516,156.383 228.85,157.05 227.5,158.5C 226.893,158.376 226.56,158.043 226.5,157.5C 225.081,156.549 223.415,156.216 221.5,156.5C 222.952,155.698 224.618,155.198 226.5,155C 240.04,143.289 253.706,131.789 267.5,120.5 Z"/></g>
<g><path style="opacity:1" fill="#f3f4f5" d="M 137.5,171.5 C 135.372,172.629 133.039,172.796 130.5,172C 129.619,171.292 128.953,170.458 128.5,169.5C 128.68,165.318 128.013,161.318 126.5,157.5C 128.085,156.526 129.085,155.026 129.5,153C 132.926,151.762 134.592,152.929 134.5,156.5C 135.5,156.5 136.5,156.5 137.5,156.5C 137.5,157.833 137.5,159.167 137.5,160.5C 136.167,160.5 134.833,160.5 133.5,160.5C 133.337,162.857 133.503,165.19 134,167.5C 135.011,168.337 136.178,168.67 137.5,168.5C 137.5,169.5 137.5,170.5 137.5,171.5 Z"/></g>
<g><path style="opacity:1" fill="#f8f8f9" d="M 158.5,171.5 C 155.531,173.006 152.698,172.673 150,170.5C 149.928,166.469 149.094,162.636 147.5,159C 148.856,157.433 149.523,155.6 149.5,153.5C 151.042,152.699 152.708,152.366 154.5,152.5C 154.5,154.167 154.5,155.833 154.5,157.5C 155.833,157.5 157.167,157.5 158.5,157.5C 158.5,158.5 158.5,159.5 158.5,160.5C 157.167,160.5 155.833,160.5 154.5,160.5C 154.337,162.857 154.503,165.19 155,167.5C 156.011,168.337 157.178,168.67 158.5,168.5C 158.5,169.5 158.5,170.5 158.5,171.5 Z"/></g>
<g><path style="opacity:1" fill="#f1f2f3" d="M 172.5,156.5 C 183.86,155.71 187.193,160.543 182.5,171C 172.972,174.794 168.472,171.627 169,161.5C 169.997,159.677 171.164,158.01 172.5,156.5 Z"/></g>
<g><path style="opacity:1" fill="#ecedef" d="M 194.5,156.5 C 197.365,156.055 199.865,156.722 202,158.5C 202.499,163.155 202.666,167.821 202.5,172.5C 200.5,172.5 198.5,172.5 196.5,172.5C 196.5,168.5 196.5,164.5 196.5,160.5C 195.5,160.5 194.5,160.5 193.5,160.5C 193.5,164.5 193.5,168.5 193.5,172.5C 191.5,172.5 189.5,172.5 187.5,172.5C 187.5,167.167 187.5,161.833 187.5,156.5C 189.766,156.141 191.599,156.808 193,158.5C 193.717,157.956 194.217,157.289 194.5,156.5 Z"/></g>
<g><path style="opacity:1" fill="#eeeff0" d="M 98.5,156.5 C 102.584,156.043 106.417,156.71 110,158.5C 110.499,163.155 110.666,167.821 110.5,172.5C 107.359,171.911 104.359,171.911 101.5,172.5C 97.0106,172.167 95.5106,169.833 97,165.5C 98.9777,163.261 101.478,161.928 104.5,161.5C 102.516,160.294 100.516,160.294 98.5,161.5C 97.3336,159.833 97.3336,158.166 98.5,156.5 Z"/></g>
<g><path style="opacity:1" fill="#f3f4f5" d="M 125.5,157.5 C 125.5,158.5 125.5,159.5 125.5,160.5C 123.585,160.216 121.919,160.549 120.5,161.5C 119.883,161.611 119.383,161.944 119,162.5C 118.332,167.329 120.499,169.329 125.5,168.5C 125.67,169.822 125.337,170.989 124.5,172C 120.409,173.227 116.909,172.394 114,169.5C 111.33,159.005 115.163,155.005 125.5,157.5 Z"/></g>
<g><path style="opacity:1" fill="#f9fafa" d="M 145.5,157.5 C 145.5,162.167 145.5,166.833 145.5,171.5C 143.833,171.5 142.167,171.5 140.5,171.5C 140.5,166.833 140.5,162.167 140.5,157.5C 142.167,157.5 143.833,157.5 145.5,157.5 Z"/></g>
<g><path style="opacity:1" fill="#f1f2f3" d="M 161.5,156.5 C 163.167,156.5 164.833,156.5 166.5,156.5C 166.5,161.833 166.5,167.167 166.5,172.5C 164.5,172.5 162.5,172.5 160.5,172.5C 160.5,171.167 160.5,169.833 160.5,168.5C 160.183,164.298 160.517,160.298 161.5,156.5 Z"/></g>
<g><path style="opacity:1" fill="#ebeced" d="M 217.5,157.5 C 221.68,165.171 219.347,168.337 210.5,167C 212.937,168.375 215.603,168.875 218.5,168.5C 218.67,169.822 218.337,170.989 217.5,172C 207.19,173.857 203.19,169.69 205.5,159.5C 208.983,156.334 212.983,155.667 217.5,157.5 Z"/></g>
<g><path style="opacity:1" fill="#fcfcfc" d="M 227.5,162.5 C 226.523,165.287 226.19,168.287 226.5,171.5C 225.167,171.5 223.833,171.5 222.5,171.5C 222.5,166.833 222.5,162.167 222.5,157.5C 223.833,157.5 225.167,157.5 226.5,157.5C 226.56,158.043 226.893,158.376 227.5,158.5C 228.85,157.05 230.516,156.383 232.5,156.5C 232.5,158.167 232.5,159.833 232.5,161.5C 230.585,161.216 228.919,161.549 227.5,162.5 Z"/></g>
<g><path style="opacity:1" fill="#bfc2c7" d="M 140.5,156.5 C 142.415,156.216 144.081,156.549 145.5,157.5C 143.833,157.5 142.167,157.5 140.5,157.5C 140.5,162.167 140.5,166.833 140.5,171.5C 142.167,171.5 143.833,171.5 145.5,171.5C 143.735,172.461 141.735,172.795 139.5,172.5C 139.5,171.167 139.5,169.833 139.5,168.5C 139.183,164.298 139.517,160.298 140.5,156.5 Z"/></g>
<g><path style="opacity:1" fill="#cbced2" d="M 221.5,156.5 C 223.415,156.216 225.081,156.549 226.5,157.5C 225.167,157.5 223.833,157.5 222.5,157.5C 222.5,162.167 222.5,166.833 222.5,171.5C 223.833,171.5 225.167,171.5 226.5,171.5C 226.19,168.287 226.523,165.287 227.5,162.5C 227.5,165.833 227.5,169.167 227.5,172.5C 225.5,172.5 223.5,172.5 221.5,172.5C 221.5,167.833 221.5,163.167 221.5,158.5C 221.5,157.833 221.5,157.167 221.5,156.5 Z"/></g>
<g><path style="opacity:1" fill="#202a38" d="M 210.5,160.5 C 212.103,160.312 213.437,160.812 214.5,162C 212.537,162.844 211.204,162.344 210.5,160.5 Z"/></g>
<g><path style="opacity:1" fill="#767e87" d="M 125.5,157.5 C 125.833,157.5 126.167,157.5 126.5,157.5C 128.013,161.318 128.68,165.318 128.5,169.5C 127.833,166.833 127.167,164.167 126.5,161.5C 124.5,161.5 122.5,161.5 120.5,161.5C 121.919,160.549 123.585,160.216 125.5,160.5C 125.5,159.5 125.5,158.5 125.5,157.5 Z"/></g>
<g><path style="opacity:1" fill="#313c4a" d="M 175.5,160.5 C 176.496,160.414 177.329,160.748 178,161.5C 178.497,163.81 178.663,166.143 178.5,168.5C 177.178,168.67 176.011,168.337 175,167.5C 174.297,165.071 174.463,162.738 175.5,160.5 Z"/></g>
<g><path style="opacity:1" fill="#212b39" d="M 102.5,166.5 C 103.675,166.281 104.675,166.614 105.5,167.5C 103.948,168.798 102.948,168.465 102.5,166.5 Z"/></g>
<g><path style="opacity:1" fill="#46505d" d="M 115.5,107.5 C 128.167,107.5 140.833,107.5 153.5,107.5C 147.231,112.595 141.064,117.928 135,123.5C 134.768,122.263 134.268,121.263 133.5,120.5C 131.265,120.205 129.265,120.539 127.5,121.5C 127.5,127.833 127.5,134.167 127.5,140.5C 126.672,134.681 126.172,128.681 126,122.5C 125.506,124.134 125.34,125.801 125.5,127.5C 122.833,127.5 120.167,127.5 117.5,127.5C 119.607,126.532 121.941,126.198 124.5,126.5C 124.773,124.549 124.107,123.049 122.5,122C 111.617,121.397 107.283,126.563 109.5,137.5C 108.475,137.897 108.308,138.563 109,139.5C 109.833,141 111,142.167 112.5,143C 107.379,146.453 102.546,150.286 98,154.5C 96.7475,157.014 96.2475,159.68 96.5,162.5C 94.8333,162.5 93.1667,162.5 91.5,162.5C 91.8128,166.042 91.4794,169.375 90.5,172.5C 90.5,172.167 90.5,171.833 90.5,171.5C 90.5,168.167 90.5,164.833 90.5,161.5C 92.1667,161.5 93.8333,161.5 95.5,161.5C 95.5,159.833 95.5,158.167 95.5,156.5C 93.5165,156.383 91.8498,157.05 90.5,158.5C 89.8933,158.376 89.56,158.043 89.5,157.5C 88.0813,156.549 86.4147,156.216 84.5,156.5C 84.5,161.833 84.5,167.167 84.5,172.5C 85.2297,174.045 86.563,174.878 88.5,175C 84.9008,177.952 81.5675,181.118 78.5,184.5C 99.7578,185.499 121.758,185.833 144.5,185.5C 170.5,185.5 196.5,185.5 222.5,185.5C 222.5,186.5 222.5,187.5 222.5,188.5C 192.5,188.5 162.5,188.5 132.5,188.5C 114.167,188.5 95.8333,188.5 77.5,188.5C 76.788,187.261 75.788,186.761 74.5,187C 69.1667,191.667 63.8333,196.333 58.5,201C 61.3647,201.183 64.0314,201.683 66.5,202.5C 63.8333,202.5 61.1667,202.5 58.5,202.5C 57.448,202.351 56.448,202.517 55.5,203C 48.9743,208.862 42.4743,214.695 36,220.5C 34.9148,219.707 33.7481,219.04 32.5,218.5C 31.5008,205.183 31.1675,191.85 31.5,178.5C 41.2939,170.544 50.9606,162.377 60.5,154C 62.2166,152.441 64.2166,151.608 66.5,151.5C 66.33,150.178 66.6634,149.011 67.5,148C 83.6909,134.635 99.6909,121.135 115.5,107.5 Z"/></g>
<g><path style="opacity:1" fill="#b4b8bd" d="M 89.5,157.5 C 88.1667,157.5 86.8333,157.5 85.5,157.5C 85.5,162.167 85.5,166.833 85.5,171.5C 87.1667,171.5 88.8333,171.5 90.5,171.5C 90.5,171.833 90.5,172.167 90.5,172.5C 88.5,172.5 86.5,172.5 84.5,172.5C 84.5,167.167 84.5,161.833 84.5,156.5C 86.4147,156.216 88.0813,156.549 89.5,157.5 Z"/></g>
<g><path style="opacity:1" fill="#fcfcfc" d="M 90.5,171.5 C 88.8333,171.5 87.1667,171.5 85.5,171.5C 85.5,166.833 85.5,162.167 85.5,157.5C 86.8333,157.5 88.1667,157.5 89.5,157.5C 89.56,158.043 89.8933,158.376 90.5,158.5C 91.8498,157.05 93.5165,156.383 95.5,156.5C 95.5,158.167 95.5,159.833 95.5,161.5C 93.8333,161.5 92.1667,161.5 90.5,161.5C 90.5,164.833 90.5,168.167 90.5,171.5 Z"/></g>
<g><path style="opacity:1" fill="#cacdd1" d="M 66.5,151.5 C 70.7016,151.183 74.7016,151.517 78.5,152.5C 74.8333,152.5 71.1667,152.5 67.5,152.5C 67.5,158.833 67.5,165.167 67.5,171.5C 68.8333,171.5 70.1667,171.5 71.5,171.5C 71.2053,169.265 71.5386,167.265 72.5,165.5C 72.5,167.833 72.5,170.167 72.5,172.5C 70.5,172.5 68.5,172.5 66.5,172.5C 66.5,165.5 66.5,158.5 66.5,151.5 Z"/></g>
<g><path style="opacity:1" fill="#f9f9fa" d="M 78.5,152.5 C 80.0174,152.511 81.1841,153.177 82,154.5C 84.0515,162.617 80.8848,166.284 72.5,165.5C 71.5386,167.265 71.2053,169.265 71.5,171.5C 70.1667,171.5 68.8333,171.5 67.5,171.5C 67.5,165.167 67.5,158.833 67.5,152.5C 71.1667,152.5 74.8333,152.5 78.5,152.5 Z"/></g>
<g><path style="opacity:1" fill="#37414f" d="M 72.5,156.5 C 77.2442,156.038 78.2442,157.538 75.5,161C 74.552,161.483 73.552,161.649 72.5,161.5C 72.5,159.833 72.5,158.167 72.5,156.5 Z"/></g>
<g><path style="opacity:1" fill="#283442" d="M 268.5,80.5 C 269.665,126.332 269.832,172.332 269,218.5C 229.248,241.626 189.415,264.626 149.5,287.5C 145.865,285.835 142.531,283.835 139.5,281.5C 140.906,278.586 142.906,276.086 145.5,274C 168.018,255.571 190.352,236.905 212.5,218C 213.337,216.989 213.67,215.822 213.5,214.5C 215.666,214.421 217.666,213.754 219.5,212.5C 220.833,213.167 222.167,213.833 223.5,214.5C 224.167,214.167 224.833,213.833 225.5,213.5C 224.384,209.444 222.717,205.777 220.5,202.5C 219.737,201.732 218.737,201.232 217.5,201C 219.701,200.175 221.534,200.675 223,202.5C 223.471,204.246 224.138,205.913 225,207.5C 226.75,205.576 228.583,203.909 230.5,202.5C 230.5,206.5 230.5,210.5 230.5,214.5C 233.5,214.5 236.5,214.5 239.5,214.5C 239.737,213.209 239.404,212.209 238.5,211.5C 237.167,211.5 235.833,211.5 234.5,211.5C 234.5,208.5 234.5,205.5 234.5,202.5C 233.391,201.71 232.058,201.21 230.5,201C 233.412,199.76 236.079,198.094 238.5,196C 248,187.833 257.5,179.667 267,171.5C 267.5,154.503 267.667,137.503 267.5,120.5C 267.171,106.99 267.504,93.6562 268.5,80.5 Z"/></g>
<g><path style="opacity:1" fill="#3a4552" d="M 31.5,178.5 C 31.1675,191.85 31.5008,205.183 32.5,218.5C 33.7481,219.04 34.9148,219.707 36,220.5C 42.4743,214.695 48.9743,208.862 55.5,203C 56.448,202.517 57.448,202.351 58.5,202.5C 58.5,206.5 58.5,210.5 58.5,214.5C 59.8333,214.5 61.1667,214.5 62.5,214.5C 62.5,212.833 62.5,211.167 62.5,209.5C 63.675,209.719 64.675,209.386 65.5,208.5C 60.2936,206.598 60.627,205.598 66.5,205.5C 66.5,204.5 66.5,203.5 66.5,202.5C 64.0314,201.683 61.3647,201.183 58.5,201C 63.8333,196.333 69.1667,191.667 74.5,187C 75.788,186.761 76.788,187.261 77.5,188.5C 92.9946,189.331 108.661,189.831 124.5,190C 119.531,193.959 114.865,198.126 110.5,202.5C 109.167,202.5 107.833,202.5 106.5,202.5C 106.5,206.5 106.5,210.5 106.5,214.5C 105.676,210.688 105.176,206.688 105,202.5C 104.871,205.003 103.871,207.003 102,208.5C 101.809,206.292 101.309,204.292 100.5,202.5C 99.1667,202.5 97.8333,202.5 96.5,202.5C 96.5,205.5 96.5,208.5 96.5,211.5C 95.5,211.5 94.5,211.5 93.5,211.5C 93.5,208.5 93.5,205.5 93.5,202.5C 92.1667,202.5 90.8333,202.5 89.5,202.5C 87.91,204.475 86.7433,206.808 86,209.5C 85.9005,207.347 85.0672,205.681 83.5,204.5C 75.5825,200.152 71.5825,202.485 71.5,211.5C 72.3589,214.452 74.3589,216.285 77.5,217C 70.6981,221.969 64.3647,227.469 58.5,233.5C 53.8333,230.833 49.1667,228.167 44.5,225.5C 43.8933,225.624 43.56,225.957 43.5,226.5C 38.9634,224.07 34.6301,221.403 30.5,218.5C 30.3334,190.498 30.5,162.498 31,134.5C 31.4999,149.163 31.6666,163.83 31.5,178.5 Z"/></g>
<g><path style="opacity:1" fill="#35404d" d="M 77.5,188.5 C 95.8333,188.5 114.167,188.5 132.5,188.5C 149.659,189.497 166.992,189.83 184.5,189.5C 180.908,192.984 177.241,196.484 173.5,200C 172.5,200.333 171.5,200.667 170.5,201C 171.737,201.232 172.737,201.732 173.5,202.5C 172.5,202.5 171.5,202.5 170.5,202.5C 170.5,206.5 170.5,210.5 170.5,214.5C 169.676,210.688 169.176,206.688 169,202.5C 167.611,206.272 166.611,206.272 166,202.5C 165.768,203.737 165.268,204.737 164.5,205.5C 164.5,204.5 164.5,203.5 164.5,202.5C 161.167,202.5 157.833,202.5 154.5,202.5C 152.807,203.475 151.307,204.808 150,206.5C 149.148,205.429 148.315,204.429 147.5,203.5C 145.834,202.334 144.167,202.334 142.5,203.5C 140.766,207.037 139.432,210.704 138.5,214.5C 137.457,217.056 135.79,219.223 133.5,221C 120.087,231.703 107.087,242.87 94.5,254.5C 92.9991,253.248 91.3325,252.248 89.5,251.5C 88.8933,251.624 88.56,251.957 88.5,252.5C 73.5,243.833 58.5,235.167 43.5,226.5C 43.56,225.957 43.8933,225.624 44.5,225.5C 49.1667,228.167 53.8333,230.833 58.5,233.5C 64.3647,227.469 70.6981,221.969 77.5,217C 74.3589,216.285 72.3589,214.452 71.5,211.5C 79.8828,216.972 83.8828,214.639 83.5,204.5C 85.0672,205.681 85.9005,207.347 86,209.5C 86.7433,206.808 87.91,204.475 89.5,202.5C 89.335,205.85 89.5017,209.183 90,212.5C 93.262,215.077 96.5954,215.077 100,212.5C 100.498,209.183 100.665,205.85 100.5,202.5C 101.309,204.292 101.809,206.292 102,208.5C 103.871,207.003 104.871,205.003 105,202.5C 105.176,206.688 105.676,210.688 106.5,214.5C 107.5,214.5 108.5,214.5 109.5,214.5C 109.338,212.473 109.505,210.473 110,208.5C 111.121,211.836 113.287,213.836 116.5,214.5C 116.5,210.5 116.5,206.5 116.5,202.5C 115.5,202.5 114.5,202.5 113.5,202.5C 113.569,208.742 112.569,208.742 110.5,202.5C 114.865,198.126 119.531,193.959 124.5,190C 108.661,189.831 92.9946,189.331 77.5,188.5 Z"/></g>
<g><path style="opacity:1" fill="#2f3a48" d="M 184.5,189.5 C 197.171,189.333 209.838,189.5 222.5,190C 217.639,194.032 212.972,198.199 208.5,202.5C 207.5,202.5 206.5,202.5 205.5,202.5C 205.862,210.081 204.529,210.247 201.5,203C 200.207,202.51 198.873,202.343 197.5,202.5C 195.827,205.952 194.827,209.786 194.5,214C 171.121,232.928 148.288,252.428 126,272.5C 122.419,270.626 118.919,268.626 115.5,266.5C 114.893,266.624 114.56,266.957 114.5,267.5C 105.833,262.5 97.1667,257.5 88.5,252.5C 88.56,251.957 88.8933,251.624 89.5,251.5C 91.3325,252.248 92.9991,253.248 94.5,254.5C 107.087,242.87 120.087,231.703 133.5,221C 135.79,219.223 137.457,217.056 138.5,214.5C 140.666,214.421 142.666,213.754 144.5,212.5C 145.833,213.167 147.167,213.833 148.5,214.5C 149.167,214.167 149.833,213.833 150.5,213.5C 149.091,210.273 148.091,206.94 147.5,203.5C 148.315,204.429 149.148,205.429 150,206.5C 151.307,204.808 152.807,203.475 154.5,202.5C 154.5,203.5 154.5,204.5 154.5,205.5C 155.5,205.5 156.5,205.5 157.5,205.5C 157.5,208.5 157.5,211.5 157.5,214.5C 158.833,214.5 160.167,214.5 161.5,214.5C 161.5,211.5 161.5,208.5 161.5,205.5C 162.5,205.5 163.5,205.5 164.5,205.5C 165.268,204.737 165.768,203.737 166,202.5C 166.611,206.272 167.611,206.272 169,202.5C 169.176,206.688 169.676,210.688 170.5,214.5C 171.5,214.5 172.5,214.5 173.5,214.5C 173.5,210.5 173.5,206.5 173.5,202.5C 172.737,201.732 171.737,201.232 170.5,201C 171.5,200.667 172.5,200.333 173.5,200C 177.241,196.484 180.908,192.984 184.5,189.5 Z"/></g>
<g><path style="opacity:1" fill="#eaebec" d="M 58.5,202.5 C 61.1667,202.5 63.8333,202.5 66.5,202.5C 66.5,203.5 66.5,204.5 66.5,205.5C 60.627,205.598 60.2936,206.598 65.5,208.5C 64.675,209.386 63.675,209.719 62.5,209.5C 62.5,211.167 62.5,212.833 62.5,214.5C 61.1667,214.5 59.8333,214.5 58.5,214.5C 58.5,210.5 58.5,206.5 58.5,202.5 Z"/></g>
<g><path style="opacity:1" fill="#e8e9eb" d="M 83.5,204.5 C 83.8828,214.639 79.8828,216.972 71.5,211.5C 71.5825,202.485 75.5825,200.152 83.5,204.5 Z"/></g>
<g><path style="opacity:1" fill="#dfe1e3" d="M 89.5,202.5 C 90.8333,202.5 92.1667,202.5 93.5,202.5C 93.5,205.5 93.5,208.5 93.5,211.5C 94.5,211.5 95.5,211.5 96.5,211.5C 96.5,208.5 96.5,205.5 96.5,202.5C 97.8333,202.5 99.1667,202.5 100.5,202.5C 100.665,205.85 100.498,209.183 100,212.5C 96.5954,215.077 93.262,215.077 90,212.5C 89.5017,209.183 89.335,205.85 89.5,202.5 Z"/></g>
<g><path style="opacity:1" fill="#edeeef" d="M 110.5,202.5 C 112.569,208.742 113.569,208.742 113.5,202.5C 114.5,202.5 115.5,202.5 116.5,202.5C 116.5,206.5 116.5,210.5 116.5,214.5C 113.287,213.836 111.121,211.836 110,208.5C 109.505,210.473 109.338,212.473 109.5,214.5C 108.5,214.5 107.5,214.5 106.5,214.5C 106.5,210.5 106.5,206.5 106.5,202.5C 107.833,202.5 109.167,202.5 110.5,202.5 Z"/></g>
<g><path style="opacity:1" fill="#f2f3f3" d="M 123.5,202.5 C 133.859,201.691 136.192,205.524 130.5,214C 128.19,214.497 125.857,214.663 123.5,214.5C 123.5,210.5 123.5,206.5 123.5,202.5 Z"/></g>
<g><path style="opacity:1" fill="#e7e8ea" d="M 147.5,203.5 C 148.091,206.94 149.091,210.273 150.5,213.5C 149.833,213.833 149.167,214.167 148.5,214.5C 147.167,213.833 145.833,213.167 144.5,212.5C 142.666,213.754 140.666,214.421 138.5,214.5C 139.432,210.704 140.766,207.037 142.5,203.5C 144.167,202.334 145.834,202.334 147.5,203.5 Z"/></g>
<g><path style="opacity:1" fill="#e1e3e5" d="M 154.5,202.5 C 157.833,202.5 161.167,202.5 164.5,202.5C 164.5,203.5 164.5,204.5 164.5,205.5C 163.5,205.5 162.5,205.5 161.5,205.5C 161.5,208.5 161.5,211.5 161.5,214.5C 160.167,214.5 158.833,214.5 157.5,214.5C 157.5,211.5 157.5,208.5 157.5,205.5C 156.5,205.5 155.5,205.5 154.5,205.5C 154.5,204.5 154.5,203.5 154.5,202.5 Z"/></g>
<g><path style="opacity:1" fill="#fafbfb" d="M 173.5,202.5 C 173.5,206.5 173.5,210.5 173.5,214.5C 172.5,214.5 171.5,214.5 170.5,214.5C 170.5,210.5 170.5,206.5 170.5,202.5C 171.5,202.5 172.5,202.5 173.5,202.5 Z"/></g>
<g><path style="opacity:1" fill="#e8eaeb" d="M 182.5,202.5 C 191.555,201.814 193.888,205.481 189.5,213.5C 183.713,216.043 180.379,214.21 179.5,208C 179.863,205.808 180.863,203.974 182.5,202.5 Z"/></g>
<g><path style="opacity:1" fill="#e7e9ea" d="M 197.5,202.5 C 198.873,202.343 200.207,202.51 201.5,203C 204.529,210.247 205.862,210.081 205.5,202.5C 206.5,202.5 207.5,202.5 208.5,202.5C 208.5,206.5 208.5,210.5 208.5,214.5C 207.022,214.762 205.689,214.429 204.5,213.5C 201.24,206.565 199.906,206.898 200.5,214.5C 199.5,214.5 198.5,214.5 197.5,214.5C 197.5,210.5 197.5,206.5 197.5,202.5 Z"/></g>
<g><path style="opacity:1" fill="#e4e6e8" d="M 220.5,202.5 C 222.717,205.777 224.384,209.444 225.5,213.5C 224.833,213.833 224.167,214.167 223.5,214.5C 222.167,213.833 220.833,213.167 219.5,212.5C 217.666,213.754 215.666,214.421 213.5,214.5C 214.56,210.82 215.726,207.154 217,203.5C 218.011,202.663 219.178,202.33 220.5,202.5 Z"/></g>
<g><path style="opacity:1" fill="#eaebec" d="M 231.5,202.5 C 232.5,202.5 233.5,202.5 234.5,202.5C 234.5,205.5 234.5,208.5 234.5,211.5C 235.833,211.5 237.167,211.5 238.5,211.5C 236.721,213.344 234.388,214.01 231.5,213.5C 231.5,209.833 231.5,206.167 231.5,202.5 Z"/></g>
<g><path style="opacity:1" fill="#38424f" d="M 126.5,205.5 C 130.35,205.701 131.35,207.534 129.5,211C 128.552,211.483 127.552,211.649 126.5,211.5C 126.5,209.5 126.5,207.5 126.5,205.5 Z"/></g>
<g><path style="opacity:1" fill="#5f6873" d="M 143.5,206.5 C 145.465,206.948 145.798,207.948 144.5,209.5C 143.614,208.675 143.281,207.675 143.5,206.5 Z"/></g>
<g><path style="opacity:1" fill="#263140" d="M 183.5,205.5 C 188.159,205.015 189.492,206.848 187.5,211C 186.216,211.684 185.049,211.517 184,210.5C 183.506,208.866 183.34,207.199 183.5,205.5 Z"/></g>
<g><path style="opacity:1" fill="#59616d" d="M 218.5,206.5 C 220.465,206.948 220.798,207.948 219.5,209.5C 218.614,208.675 218.281,207.675 218.5,206.5 Z"/></g>
<g><path style="opacity:1" fill="#333e4c" d="M 75.5,205.5 C 80.1585,205.015 81.4919,206.848 79.5,211C 78.2161,211.684 77.0495,211.517 76,210.5C 75.5065,208.866 75.3398,207.199 75.5,205.5 Z"/></g>
<g><path style="opacity:1" fill="#b9bdc2" d="M 230.5,202.5 C 230.833,202.5 231.167,202.5 231.5,202.5C 231.5,206.167 231.5,209.833 231.5,213.5C 234.388,214.01 236.721,213.344 238.5,211.5C 239.404,212.209 239.737,213.209 239.5,214.5C 236.5,214.5 233.5,214.5 230.5,214.5C 230.5,210.5 230.5,206.5 230.5,202.5 Z"/></g>
</svg>
