<?xml version="1.0" encoding="UTF-8"?>
<!DOCTYPE svg PUBLIC "-//W3C//DTD SVG 1.1//EN" "http://www.w3.org/Graphics/SVG/1.1/DTD/svg11.dtd">
<svg xmlns="http://www.w3.org/2000/svg" version="1.1" width="300px" height="300px" style="shape-rendering:geometricPrecision; text-rendering:geometricPrecision; image-rendering:optimizeQuality; fill-rule:evenodd; clip-rule:evenodd" xmlns:xlink="http://www.w3.org/1999/xlink">
<g><path style="opacity:0.92" fill="#3c92f9" d="M 147.5,3.5 C 150.425,3.45982 153.091,4.29315 155.5,6C 195.336,29.4192 235.336,52.5859 275.5,75.5C 276.833,124.833 276.833,174.167 275.5,223.5C 233.734,247.938 191.734,271.938 149.5,295.5C 107.266,271.938 65.2659,247.938 23.5,223.5C 22.1667,174.167 22.1667,124.833 23.5,75.5C 65.1316,51.8361 106.465,27.8361 147.5,3.5 Z"/></g>
<g><path style="opacity:1" fill="#393af6" d="M 186.5,33.5 C 178.9,38.9783 171.234,44.4783 163.5,50C 165.211,51.1332 165.711,52.6332 165,54.5C 164.722,53.5842 164.222,52.9175 163.5,52.5C 159.435,49.5786 155.602,49.9119 152,53.5C 150.721,57.7228 152.221,60.3895 156.5,61.5C 153.942,62.1532 151.775,61.1532 150,58.5C 149.221,61.0972 148.721,61.0972 148.5,58.5C 148.961,56.4496 149.628,54.4496 150.5,52.5C 149.167,51.1667 147.833,51.1667 146.5,52.5C 145.18,56.1138 144.013,59.7805 143,63.5C 141.846,59.553 141.013,55.553 140.5,51.5C 138.833,51.5 137.167,51.5 135.5,51.5C 134.861,55.5272 134.028,59.5272 133,63.5C 131.844,59.8772 130.844,56.2106 130,52.5C 126.274,50.9253 125.107,51.9253 126.5,55.5C 125.99,58.9828 125.323,62.3162 124.5,65.5C 124.665,61.8183 124.499,58.1516 124,54.5C 121.487,50.7885 117.987,49.6218 113.5,51C 112.09,51.3678 111.09,52.2011 110.5,53.5C 113.386,53.7104 116.386,53.8771 119.5,54C 120.38,55.3561 120.714,56.8561 120.5,58.5C 113.181,56.6808 109.681,59.3475 110,66.5C 111.848,69.0414 114.348,70.0414 117.5,69.5C 89.9212,90.566 61.5878,111.566 32.5,132.5C 31.8333,140.323 31.1666,147.99 30.5,155.5C 30.5,130.5 30.5,105.5 30.5,80.5C 70.3029,57.7642 109.97,34.7642 149.5,11.5C 162.062,18.6077 174.395,25.941 186.5,33.5 Z"/></g>
<g><path style="opacity:1" fill="#2f33da" d="M 197.5,39.5 C 210.167,46.8333 222.833,54.1667 235.5,61.5C 236.292,62.9669 236.292,64.3002 235.5,65.5C 217.844,77.8366 200.511,90.5033 183.5,103.5C 162.164,103.667 140.831,103.5 119.5,103C 124.167,99.6667 128.833,96.3333 133.5,93C 131.613,93.4229 129.613,93.2563 127.5,92.5C 127.611,91.8826 127.944,91.3826 128.5,91C 126.292,90.8091 124.292,90.3091 122.5,89.5C 125.466,89.1103 128.132,89.777 130.5,91.5C 131.167,87.5 131.833,83.5 132.5,79.5C 133.107,79.6236 133.44,79.9569 133.5,80.5C 132.357,83.9758 132.19,87.6425 133,91.5C 133.181,88.3054 133.681,85.3054 134.5,82.5C 134.183,85.5719 134.516,88.5719 135.5,91.5C 136.814,90.6872 137.981,89.6872 139,88.5C 139.333,89.1667 139.667,89.8333 140,90.5C 140.498,87.5184 140.665,84.5184 140.5,81.5C 141.319,84.3054 141.819,87.3054 142,90.5C 143.388,91.5536 144.888,91.7203 146.5,91C 145.263,90.7679 144.263,90.2679 143.5,89.5C 145.554,89.3653 147.221,90.032 148.5,91.5C 150.414,88.3157 151.08,84.649 150.5,80.5C 151.323,83.977 151.823,87.6437 152,91.5C 152.333,88.5 152.667,85.5 153,82.5C 153.181,85.6946 153.681,88.6946 154.5,91.5C 156.402,88.6627 157.069,85.3293 156.5,81.5C 158.5,81.5 160.5,81.5 162.5,81.5C 162.18,84.8984 162.513,88.2317 163.5,91.5C 164.491,87.5546 164.824,83.5546 164.5,79.5C 164.5,78.8333 164.5,78.1667 164.5,77.5C 165.376,77.6309 166.043,77.2975 166.5,76.5C 165.5,74.8333 164.167,73.5 162.5,72.5C 164.269,70.443 166.269,68.6097 168.5,67C 168.167,66.6667 167.833,66.3333 167.5,66C 168.138,62.0648 168.804,58.2315 169.5,54.5C 169.176,58.5546 169.509,62.5546 170.5,66.5C 173.339,68.4203 176.339,70.0869 179.5,71.5C 182.751,69.625 185.918,67.625 189,65.5C 189.827,61.4589 189.66,57.4589 188.5,53.5C 187.261,53.0576 186.261,52.3909 185.5,51.5C 185.938,51.5654 186.272,51.3988 186.5,51C 184.993,50.1627 184.493,48.9961 185,47.5C 189.093,44.5448 193.26,41.8782 197.5,39.5 Z"/></g>
<g><path style="opacity:1" fill="#f6981e" d="M 185.5,51.5 C 186.261,52.3909 187.261,53.0576 188.5,53.5C 189.66,57.4589 189.827,61.4589 189,65.5C 185.918,67.625 182.751,69.625 179.5,71.5C 176.339,70.0869 173.339,68.4203 170.5,66.5C 169.509,62.5546 169.176,58.5546 169.5,54.5C 172.438,52.023 175.771,50.023 179.5,48.5C 181.527,49.5133 183.527,50.5133 185.5,51.5 Z"/></g>
<g><path style="opacity:1" fill="#e8e6fe" d="M 124.5,65.5 C 124.498,69.5411 123.165,70.2077 120.5,67.5C 119.261,67.9424 118.261,68.6091 117.5,69.5C 114.348,70.0414 111.848,69.0414 110,66.5C 109.681,59.3475 113.181,56.6808 120.5,58.5C 120.714,56.8561 120.38,55.3561 119.5,54C 116.386,53.8771 113.386,53.7104 110.5,53.5C 111.09,52.2011 112.09,51.3678 113.5,51C 117.987,49.6218 121.487,50.7885 124,54.5C 124.499,58.1516 124.665,61.8183 124.5,65.5 Z"/></g>
<g><path style="opacity:1" fill="#eae8fd" d="M 148.5,58.5 C 146.723,61.5046 145.723,64.8379 145.5,68.5C 143.833,68.5 142.167,68.5 140.5,68.5C 140.192,64.4052 139.359,60.4052 138,56.5C 136.68,60.1138 135.513,63.7805 134.5,67.5C 133.311,68.4287 131.978,68.762 130.5,68.5C 129.409,63.9996 128.076,59.6662 126.5,55.5C 125.107,51.9253 126.274,50.9253 130,52.5C 130.844,56.2106 131.844,59.8772 133,63.5C 134.028,59.5272 134.861,55.5272 135.5,51.5C 137.167,51.5 138.833,51.5 140.5,51.5C 141.013,55.553 141.846,59.553 143,63.5C 144.013,59.7805 145.18,56.1138 146.5,52.5C 147.833,51.1667 149.167,51.1667 150.5,52.5C 149.628,54.4496 148.961,56.4496 148.5,58.5 Z"/></g>
<g><path style="opacity:1" fill="#ecebfd" d="M 163.5,52.5 C 163.631,53.3764 163.298,54.0431 162.5,54.5C 159.517,52.7935 157.184,53.2935 155.5,56C 158.087,58.198 160.921,60.0313 164,61.5C 165.271,65.1661 164.104,67.6661 160.5,69C 157.77,69.7284 155.103,69.5617 152.5,68.5C 151.167,67.5 151.167,66.5 152.5,65.5C 155.366,66.7946 158.199,66.7946 161,65.5C 160.872,62.9688 159.372,61.6354 156.5,61.5C 152.221,60.3895 150.721,57.7228 152,53.5C 155.602,49.9119 159.435,49.5786 163.5,52.5 Z"/></g>
<g><path style="opacity:1" fill="#fef6ed" d="M 182.5,55.5 C 183.756,55.4614 184.756,55.9614 185.5,57C 182.616,60.5856 179.283,63.2522 175.5,65C 172.807,61.7155 173.474,60.3821 177.5,61C 179.373,59.2962 181.04,57.4628 182.5,55.5 Z"/></g>
<g><path style="opacity:1" fill="#3532f6" d="M 113.5,61.5 C 115.833,61.5 118.167,61.5 120.5,61.5C 120.2,65.9764 118.033,67.3097 114,65.5C 113.51,64.2068 113.343,62.8734 113.5,61.5 Z"/></g>
<g><path style="opacity:1" fill="#3536eb" d="M 186.5,33.5 C 190.3,35.2336 193.966,37.2336 197.5,39.5C 193.26,41.8782 189.093,44.5448 185,47.5C 184.493,48.9961 184.993,50.1627 186.5,51C 186.272,51.3988 185.938,51.5654 185.5,51.5C 183.527,50.5133 181.527,49.5133 179.5,48.5C 175.771,50.023 172.438,52.023 169.5,54.5C 168.804,58.2315 168.138,62.0648 167.5,66C 167.833,66.3333 168.167,66.6667 168.5,67C 166.269,68.6097 164.269,70.443 162.5,72.5C 164.167,73.5 165.5,74.8333 166.5,76.5C 166.043,77.2975 165.376,77.6309 164.5,77.5C 164.5,78.1667 164.5,78.8333 164.5,79.5C 161.833,79.5 159.167,79.5 156.5,79.5C 156.325,76.6711 157.658,75.0045 160.5,74.5C 158.389,73.1515 156.555,73.4848 155,75.5C 154.696,77.4405 153.863,79.1072 152.5,80.5C 154.312,83.8989 154.979,87.5656 154.5,91.5C 153.681,88.6946 153.181,85.6946 153,82.5C 152.667,85.5 152.333,88.5 152,91.5C 151.823,87.6437 151.323,83.977 150.5,80.5C 150.44,79.9569 150.107,79.6236 149.5,79.5C 148.509,83.4454 148.176,87.4454 148.5,91.5C 147.221,90.032 145.554,89.3653 143.5,89.5C 142.527,87.0521 142.194,84.3854 142.5,81.5C 143.978,81.762 145.311,81.4287 146.5,80.5C 145.675,79.6143 144.675,79.281 143.5,79.5C 143.719,78.325 143.386,77.325 142.5,76.5C 141.646,77.9479 140.646,79.2813 139.5,80.5C 139.624,81.1067 139.957,81.44 140.5,81.5C 140.665,84.5184 140.498,87.5184 140,90.5C 139.667,89.8333 139.333,89.1667 139,88.5C 137.981,89.6872 136.814,90.6872 135.5,91.5C 134.516,88.5719 134.183,85.5719 134.5,82.5C 138.464,80.1212 138.131,79.4545 133.5,80.5C 133.44,79.9569 133.107,79.6236 132.5,79.5C 131.833,83.5 131.167,87.5 130.5,91.5C 128.132,89.777 125.466,89.1103 122.5,89.5C 121.596,88.791 121.263,87.791 121.5,86.5C 124.167,86.5 126.833,86.5 129.5,86.5C 130.169,80.9999 127.835,78.8333 122.5,80C 118.5,84 118.5,88 122.5,92C 124.134,92.4935 125.801,92.6602 127.5,92.5C 129.613,93.2563 131.613,93.4229 133.5,93C 128.833,96.3333 124.167,99.6667 119.5,103C 140.831,103.5 162.164,103.667 183.5,103.5C 196.677,103.171 209.677,103.505 222.5,104.5C 173.489,103.838 124.822,104.505 76.5,106.5C 88.3263,107.331 100.326,107.831 112.5,108C 107.986,111.091 103.653,114.425 99.5,118C 95.4271,119.029 91.4271,119.862 87.5,120.5C 83.5413,122.073 81.8747,125.073 82.5,129.5C 81.3249,128.026 80.3249,126.36 79.5,124.5C 63.526,135.974 47.6927,147.64 32,159.5C 31.6667,166.833 31.3333,174.167 31,181.5C 30.5002,172.84 30.3336,164.173 30.5,155.5C 31.1666,147.99 31.8333,140.323 32.5,132.5C 61.5878,111.566 89.9212,90.566 117.5,69.5C 118.261,68.6091 119.261,67.9424 120.5,67.5C 123.165,70.2077 124.498,69.5411 124.5,65.5C 125.323,62.3162 125.99,58.9828 126.5,55.5C 128.076,59.6662 129.409,63.9996 130.5,68.5C 131.978,68.762 133.311,68.4287 134.5,67.5C 135.513,63.7805 136.68,60.1138 138,56.5C 139.359,60.4052 140.192,64.4052 140.5,68.5C 142.167,68.5 143.833,68.5 145.5,68.5C 145.723,64.8379 146.723,61.5046 148.5,58.5C 148.721,61.0972 149.221,61.0972 150,58.5C 151.775,61.1532 153.942,62.1532 156.5,61.5C 159.372,61.6354 160.872,62.9688 161,65.5C 158.199,66.7946 155.366,66.7946 152.5,65.5C 151.167,66.5 151.167,67.5 152.5,68.5C 155.103,69.5617 157.77,69.7284 160.5,69C 164.104,67.6661 165.271,65.1661 164,61.5C 160.921,60.0313 158.087,58.198 155.5,56C 157.184,53.2935 159.517,52.7935 162.5,54.5C 163.298,54.0431 163.631,53.3764 163.5,52.5C 164.222,52.9175 164.722,53.5842 165,54.5C 165.711,52.6332 165.211,51.1332 163.5,50C 171.234,44.4783 178.9,38.9783 186.5,33.5 Z"/></g>
<g><path style="opacity:1" fill="#c9c8f8" d="M 148.5,75.5 C 150.337,75.6395 150.67,76.3061 149.5,77.5C 148.702,77.0431 148.369,76.3764 148.5,75.5 Z"/></g>
<g><path style="opacity:1" fill="#e4e4fb" d="M 164.5,77.5 C 162.663,77.3605 162.33,76.6939 163.5,75.5C 164.298,75.9569 164.631,76.6236 164.5,77.5 Z"/></g>
<g><path style="opacity:1" fill="#ebeafc" d="M 143.5,89.5 C 144.263,90.2679 145.263,90.7679 146.5,91C 144.888,91.7203 143.388,91.5536 142,90.5C 141.819,87.3054 141.319,84.3054 140.5,81.5C 139.957,81.44 139.624,81.1067 139.5,80.5C 140.646,79.2813 141.646,77.9479 142.5,76.5C 143.386,77.325 143.719,78.325 143.5,79.5C 144.675,79.281 145.675,79.6143 146.5,80.5C 145.311,81.4287 143.978,81.762 142.5,81.5C 142.194,84.3854 142.527,87.0521 143.5,89.5 Z"/></g>
<g><path style="opacity:1" fill="#212bc0" d="M 235.5,61.5 C 246.533,67.3444 257.199,73.6777 267.5,80.5C 267.666,85.8437 267.499,91.1771 267,96.5C 266.167,97.3333 265.333,98.1667 264.5,99C 248.516,109.902 233.016,121.402 218,133.5C 216.968,131.973 215.801,130.64 214.5,129.5C 216.652,128.923 216.985,127.756 215.5,126C 211.756,125.071 208.256,125.571 205,127.5C 204.333,129.167 204.333,130.833 205,132.5C 206.925,134.213 209.092,135.547 211.5,136.5C 209.516,137.706 207.516,137.706 205.5,136.5C 204.571,137.689 204.238,139.022 204.5,140.5C 203.833,140.5 203.167,140.5 202.5,140.5C 202.818,135.968 202.485,131.634 201.5,127.5C 200.508,125.974 199.008,125.307 197,125.5C 193.843,126.677 190.677,126.677 187.5,125.5C 186.512,130.64 186.179,135.974 186.5,141.5C 185.833,139.833 185.167,138.167 184.5,136.5C 185.322,128.99 181.988,125.324 174.5,125.5C 175.609,124.71 176.942,124.21 178.5,124C 177.542,122.853 177.875,121.853 179.5,121C 185.967,117.021 191.967,112.521 197.5,107.5C 206.017,107.826 214.35,107.493 222.5,106.5C 222.5,105.833 222.5,105.167 222.5,104.5C 209.677,103.505 196.677,103.171 183.5,103.5C 200.511,90.5033 217.844,77.8366 235.5,65.5C 236.292,64.3002 236.292,62.9669 235.5,61.5 Z"/></g>
<g><path style="opacity:1" fill="#f8f8fe" d="M 134.5,82.5 C 133.681,85.3054 133.181,88.3054 133,91.5C 132.19,87.6425 132.357,83.9758 133.5,80.5C 138.131,79.4545 138.464,80.1212 134.5,82.5 Z"/></g>
<g><path style="opacity:1" fill="#b5b2f4" d="M 150.5,80.5 C 151.08,84.649 150.414,88.3157 148.5,91.5C 148.176,87.4454 148.509,83.4454 149.5,79.5C 150.107,79.6236 150.44,79.9569 150.5,80.5 Z"/></g>
<g><path style="opacity:1" fill="#dbdbf8" d="M 169.5,79.5 C 175.164,78.4992 177.498,80.8325 176.5,86.5C 173.753,86.1866 171.086,86.52 168.5,87.5C 168.977,88.4776 169.643,89.3109 170.5,90C 172.5,90.3333 174.5,90.6667 176.5,91C 170.943,93.6335 167.943,91.8002 167.5,85.5C 167.363,83.1595 168.03,81.1595 169.5,79.5 Z"/></g>
<g><path style="opacity:1" fill="#d9d7fb" d="M 122.5,89.5 C 124.292,90.3091 126.292,90.8091 128.5,91C 127.944,91.3826 127.611,91.8826 127.5,92.5C 125.801,92.6602 124.134,92.4935 122.5,92C 118.5,88 118.5,84 122.5,80C 127.835,78.8333 130.169,80.9999 129.5,86.5C 126.833,86.5 124.167,86.5 121.5,86.5C 121.263,87.791 121.596,88.791 122.5,89.5 Z"/></g>
<g><path style="opacity:1" fill="#2624e9" d="M 122.5,81.5 C 124.167,81.5 125.833,81.5 127.5,81.5C 127.5,82.5 127.5,83.5 127.5,84.5C 125.396,84.7989 123.396,84.4656 121.5,83.5C 121.863,82.8165 122.196,82.1499 122.5,81.5 Z"/></g>
<g><path style="opacity:1" fill="#cfcdf7" d="M 164.5,79.5 C 164.824,83.5546 164.491,87.5546 163.5,91.5C 162.513,88.2317 162.18,84.8984 162.5,81.5C 160.5,81.5 158.5,81.5 156.5,81.5C 157.069,85.3293 156.402,88.6627 154.5,91.5C 154.979,87.5656 154.312,83.8989 152.5,80.5C 153.863,79.1072 154.696,77.4405 155,75.5C 156.555,73.4848 158.389,73.1515 160.5,74.5C 157.658,75.0045 156.325,76.6711 156.5,79.5C 159.167,79.5 161.833,79.5 164.5,79.5 Z"/></g>
<g><path style="opacity:1" fill="#1e1fd7" d="M 169.5,81.5 C 171.977,81.0508 173.977,81.7175 175.5,83.5C 173.235,84.6474 170.902,84.8141 168.5,84C 169.252,83.3292 169.586,82.4959 169.5,81.5 Z"/></g>
<g><path style="opacity:1" fill="#e2e1fc" d="M 112.5,79.5 C 119.136,80.0218 119.136,80.8551 112.5,82C 110.321,87.2569 111.988,90.2569 117.5,91C 110.495,92.3236 107.995,89.4902 110,82.5C 111.045,81.6266 111.878,80.6266 112.5,79.5 Z"/></g>
<g><path style="opacity:1" fill="#e4e3f9" d="M 187.5,74.5 C 189.45,79.7351 190.117,85.4018 189.5,91.5C 183.37,94.024 180.036,92.024 179.5,85.5C 179.49,80.0055 181.99,78.3388 187,80.5C 187.495,78.5273 187.662,76.5273 187.5,74.5 Z"/></g>
<g><path style="opacity:1" fill="#2c2dd4" d="M 181.5,81.5 C 183.5,81.5 185.5,81.5 187.5,81.5C 187.664,84.1873 187.497,86.854 187,89.5C 184.733,90.9348 182.733,90.6015 181,88.5C 180.444,86.1152 180.61,83.7819 181.5,81.5 Z"/></g>
<g><path style="opacity:1" fill="#b8baef" d="M 222.5,104.5 C 222.5,105.167 222.5,105.833 222.5,106.5C 173.833,106.5 125.167,106.5 76.5,106.5C 124.822,104.505 173.489,103.838 222.5,104.5 Z"/></g>
<g><path style="opacity:1" fill="#fbfbfe" d="M 127.5,139.5 C 127.167,140.167 126.833,140.833 126.5,141.5C 123.956,141.896 121.789,141.229 120,139.5C 119.5,132.842 119.334,126.175 119.5,119.5C 121.167,119.5 122.833,119.5 124.5,119.5C 124.334,125.176 124.501,130.843 125,136.5C 126.417,137.078 127.25,138.078 127.5,139.5 Z"/></g>
<g><path style="opacity:1" fill="#f1f1fb" d="M 174.5,125.5 C 181.988,125.324 185.322,128.99 184.5,136.5C 183.167,138.5 181.5,140.167 179.5,141.5C 168.946,141.436 165.946,136.603 170.5,127C 171.745,126.209 173.078,125.709 174.5,125.5 Z"/></g>
<g><path style="opacity:1" fill="#fafafd" d="M 187.5,125.5 C 190.677,126.677 193.843,126.677 197,125.5C 199.008,125.307 200.508,125.974 201.5,127.5C 201.5,131.833 201.5,136.167 201.5,140.5C 199.833,140.5 198.167,140.5 196.5,140.5C 196.5,136.833 196.5,133.167 196.5,129.5C 195.209,129.263 194.209,129.596 193.5,130.5C 192.521,133.625 192.187,136.958 192.5,140.5C 190.833,140.5 189.167,140.5 187.5,140.5C 187.5,135.5 187.5,130.5 187.5,125.5 Z"/></g>
<g><path style="opacity:1" fill="#eeeff9" d="M 214.5,129.5 C 213.127,129.343 211.793,129.51 210.5,130C 212.249,131.292 214.082,132.458 216,133.5C 217.732,139.272 215.565,141.939 209.5,141.5C 207.742,141.408 206.076,141.075 204.5,140.5C 204.238,139.022 204.571,137.689 205.5,136.5C 207.516,137.706 209.516,137.706 211.5,136.5C 209.092,135.547 206.925,134.213 205,132.5C 204.333,130.833 204.333,129.167 205,127.5C 208.256,125.571 211.756,125.071 215.5,126C 216.985,127.756 216.652,128.923 214.5,129.5 Z"/></g>
<g><path style="opacity:1" fill="#1925a8" d="M 267.5,128.5 C 267.789,132.106 267.456,135.606 266.5,139C 245.553,153.613 224.887,168.613 204.5,184C 210.916,183.871 216.916,184.705 222.5,186.5C 174.167,186.5 125.833,186.5 77.5,186.5C 98.6601,185.503 119.993,185.169 141.5,185.5C 152.172,185.667 162.839,185.5 173.5,185C 171.833,184.667 170.167,184.333 168.5,184C 173.666,180.327 178.666,176.494 183.5,172.5C 181.709,171.83 180.042,171.163 178.5,170.5C 181.167,170.5 183.833,170.5 186.5,170.5C 186.5,169.167 186.5,167.833 186.5,166.5C 183.603,166.875 180.937,166.375 178.5,165C 181.482,164.502 184.482,164.335 187.5,164.5C 188.167,163.167 188.833,161.833 189.5,160.5C 188.891,169.218 192.891,172.552 201.5,170.5C 201.5,169.167 201.5,167.833 201.5,166.5C 196.094,167.265 194.094,164.931 195.5,159.5C 197.5,159.5 199.5,159.5 201.5,159.5C 202.5,159.5 203.5,159.5 204.5,159.5C 204.194,162.385 204.527,165.052 205.5,167.5C 205.414,168.496 205.748,169.329 206.5,170C 209.146,170.497 211.813,170.664 214.5,170.5C 214.5,169.167 214.5,167.833 214.5,166.5C 213.167,166.5 211.833,166.5 210.5,166.5C 210.5,164.167 210.5,161.833 210.5,159.5C 211.833,159.5 213.167,159.5 214.5,159.5C 214.5,158.167 214.5,156.833 214.5,155.5C 212.901,155.768 211.568,155.434 210.5,154.5C 211.873,154.657 213.207,154.49 214.5,154C 212.519,153.395 212.185,152.395 213.5,151C 231.167,138.167 248.833,125.333 266.5,112.5C 267.495,117.792 267.828,123.125 267.5,128.5 Z"/></g>
<g><path style="opacity:1" fill="#7379d5" d="M 187.5,125.5 C 187.5,130.5 187.5,135.5 187.5,140.5C 189.167,140.5 190.833,140.5 192.5,140.5C 192.187,136.958 192.521,133.625 193.5,130.5C 193.5,134.167 193.5,137.833 193.5,141.5C 191.167,141.5 188.833,141.5 186.5,141.5C 186.179,135.974 186.512,130.64 187.5,125.5 Z"/></g>
<g><path style="opacity:1" fill="#a0a4e1" d="M 201.5,127.5 C 202.485,131.634 202.818,135.968 202.5,140.5C 200.5,141.833 198.5,141.833 196.5,140.5C 198.167,140.5 199.833,140.5 201.5,140.5C 201.5,136.167 201.5,131.833 201.5,127.5 Z"/></g>
<g><path style="opacity:1" fill="#2426bf" d="M 175.5,129.5 C 177.89,129.685 178.89,131.018 178.5,133.5C 177.167,138.833 175.833,138.833 174.5,133.5C 174.623,132.075 174.957,130.742 175.5,129.5 Z"/></g>
<g><path style="opacity:1" fill="#2e33da" d="M 30.5,80.5 C 30.5,105.5 30.5,130.5 30.5,155.5C 30.3336,164.173 30.5002,172.84 31,181.5C 31.3333,174.167 31.6667,166.833 32,159.5C 47.6927,147.64 63.526,135.974 79.5,124.5C 80.3249,126.36 81.3249,128.026 82.5,129.5C 85.7482,131.688 89.0815,133.688 92.5,135.5C 89.5719,136.484 86.5719,136.817 83.5,136.5C 82.9092,140.741 84.7425,142.407 89,141.5C 95.9587,141.548 98.9587,138.215 98,131.5C 94.845,129.594 91.6784,127.76 88.5,126C 90.88,124.243 93.38,124.077 96,125.5C 96.4935,123.866 96.6602,122.199 96.5,120.5C 93.5,120.5 90.5,120.5 87.5,120.5C 91.4271,119.862 95.4271,119.029 99.5,118C 103.653,114.425 107.986,111.091 112.5,108C 100.326,107.831 88.3263,107.331 76.5,106.5C 125.167,106.5 173.833,106.5 222.5,106.5C 214.35,107.493 206.017,107.826 197.5,107.5C 182.83,107.333 168.163,107.5 153.5,108C 146.5,113 139.5,118 132.5,123C 134.119,123.236 135.119,124.069 135.5,125.5C 133.5,125.5 131.5,125.5 129.5,125.5C 128.833,130.167 128.167,134.833 127.5,139.5C 127.25,138.078 126.417,137.078 125,136.5C 124.501,130.843 124.334,125.176 124.5,119.5C 122.833,119.5 121.167,119.5 119.5,119.5C 119.334,126.175 119.5,132.842 120,139.5C 121.789,141.229 123.956,141.896 126.5,141.5C 127.289,141.783 127.956,142.283 128.5,143C 123.986,146.091 119.653,149.425 115.5,153C 116.167,153.333 116.833,153.667 117.5,154C 116.263,154.232 115.263,154.732 114.5,155.5C 111.976,155.957 109.309,155.957 106.5,155.5C 106.5,160.5 106.5,165.5 106.5,170.5C 105.833,170.167 105.167,169.833 104.5,169.5C 102.661,162.817 100.328,156.317 97.5,150C 95.2305,149.242 93.0639,149.409 91,150.5C 89.0597,155.49 87.2264,160.49 85.5,165.5C 84.5267,164.016 83.1933,163.516 81.5,164C 65.089,176.289 48.589,188.455 32,200.5C 31.5787,207.134 31.4121,213.467 31.5,219.5C 30.1669,196.676 29.5002,173.51 29.5,150C 29.5,126.664 29.8334,103.498 30.5,80.5 Z"/></g>
<g><path style="opacity:1" fill="#f3f2fd" d="M 104.5,125.5 C 111.49,123.838 115.49,126.505 116.5,133.5C 115.303,140.273 111.303,142.773 104.5,141C 99.2268,135.743 99.2268,130.577 104.5,125.5 Z"/></g>
<g><path style="opacity:1" fill="#2c2cd7" d="M 107.5,129.5 C 109.89,129.685 110.89,131.018 110.5,133.5C 109.167,138.833 107.833,138.833 106.5,133.5C 106.623,132.075 106.957,130.742 107.5,129.5 Z"/></g>
<g><path style="opacity:1" fill="#f3f2fd" d="M 87.5,120.5 C 90.5,120.5 93.5,120.5 96.5,120.5C 96.6602,122.199 96.4935,123.866 96,125.5C 93.38,124.077 90.88,124.243 88.5,126C 91.6784,127.76 94.845,129.594 98,131.5C 98.9587,138.215 95.9587,141.548 89,141.5C 84.7425,142.407 82.9092,140.741 83.5,136.5C 86.5719,136.817 89.5719,136.484 92.5,135.5C 89.0815,133.688 85.7482,131.688 82.5,129.5C 81.8747,125.073 83.5413,122.073 87.5,120.5 Z"/></g>
<g><path style="opacity:1" fill="#1f28b6" d="M 267.5,80.5 C 267.833,80.5 268.167,80.5 268.5,80.5C 268.5,96.5 268.5,112.5 268.5,128.5C 268.167,128.5 267.833,128.5 267.5,128.5C 267.828,123.125 267.495,117.792 266.5,112.5C 248.833,125.333 231.167,138.167 213.5,151C 212.185,152.395 212.519,153.395 214.5,154C 213.207,154.49 211.873,154.657 210.5,154.5C 210.5,153.5 210.5,152.5 210.5,151.5C 208.833,151.5 207.167,151.5 205.5,151.5C 205.771,153.38 205.104,154.713 203.5,155.5C 202.833,155.5 202.167,155.5 201.5,155.5C 195.843,153.331 191.843,154.998 189.5,160.5C 188.833,161.833 188.167,163.167 187.5,164.5C 188.505,156.67 185.172,153.504 177.5,155C 173.672,158.264 172.505,162.431 174,167.5C 175.129,169.141 176.629,170.141 178.5,170.5C 180.042,171.163 181.709,171.83 183.5,172.5C 178.666,176.494 173.666,180.327 168.5,184C 170.167,184.333 171.833,184.667 173.5,185C 162.839,185.5 152.172,185.667 141.5,185.5C 133.343,184.671 125.01,184.171 116.5,184C 121.5,180.333 126.5,176.667 131.5,173C 134.167,172.667 136.833,172.333 139.5,172C 137.618,171.802 135.952,171.302 134.5,170.5C 136.167,170.5 137.833,170.5 139.5,170.5C 139.335,166.818 139.501,163.152 140,159.5C 141,158.167 142,158.167 143,159.5C 143.499,163.152 143.665,166.818 143.5,170.5C 145.167,170.5 146.833,170.5 148.5,170.5C 148.5,166.167 148.5,161.833 148.5,157.5C 149.166,161.684 149.833,166.018 150.5,170.5C 151.167,165.349 151.834,160.349 152.5,155.5C 152.5,160.5 152.5,165.5 152.5,170.5C 154.167,170.5 155.833,170.5 157.5,170.5C 157.833,170.5 158.167,170.5 158.5,170.5C 159.321,167.359 159.821,164.025 160,160.5C 160.112,163.634 160.612,165.967 161.5,167.5C 164.192,170.142 167.525,171.142 171.5,170.5C 171.5,169.167 171.5,167.833 171.5,166.5C 170.178,166.67 169.011,166.337 168,165.5C 167.505,163.527 167.338,161.527 167.5,159.5C 168.833,159.5 170.167,159.5 171.5,159.5C 171.5,158.167 171.5,156.833 171.5,155.5C 170.167,155.5 168.833,155.5 167.5,155.5C 167.5,154.167 167.5,152.833 167.5,151.5C 166.167,151.5 164.833,151.5 163.5,151.5C 164.609,150.71 165.942,150.21 167.5,150C 166.5,149.667 165.5,149.333 164.5,149C 167.333,146.833 170.167,144.667 173,142.5C 175.064,143.591 177.231,143.758 179.5,143C 180.738,142.31 180.738,141.81 179.5,141.5C 181.5,140.167 183.167,138.5 184.5,136.5C 185.167,138.167 185.833,139.833 186.5,141.5C 188.833,141.5 191.167,141.5 193.5,141.5C 193.5,137.833 193.5,134.167 193.5,130.5C 194.209,129.596 195.209,129.263 196.5,129.5C 196.5,133.167 196.5,136.833 196.5,140.5C 198.5,141.833 200.5,141.833 202.5,140.5C 203.167,140.5 203.833,140.5 204.5,140.5C 206.076,141.075 207.742,141.408 209.5,141.5C 215.565,141.939 217.732,139.272 216,133.5C 214.082,132.458 212.249,131.292 210.5,130C 211.793,129.51 213.127,129.343 214.5,129.5C 215.801,130.64 216.968,131.973 218,133.5C 233.016,121.402 248.516,109.902 264.5,99C 265.333,98.1667 266.167,97.3333 267,96.5C 267.499,91.1771 267.666,85.8437 267.5,80.5 Z"/></g>
<g><path style="opacity:1" fill="#f2f2fc" d="M 104.5,169.5 C 102.712,170.622 100.712,170.789 98.5,170C 97.6634,168.989 97.33,167.822 97.5,166.5C 93.1667,167.833 88.8333,169.167 84.5,170.5C 84.6287,168.784 84.962,167.117 85.5,165.5C 87.2264,160.49 89.0597,155.49 91,150.5C 93.0639,149.409 95.2305,149.242 97.5,150C 100.328,156.317 102.661,162.817 104.5,169.5 Z"/></g>
<g><path style="opacity:1" fill="#f0effa" d="M 163.5,151.5 C 164.833,151.5 166.167,151.5 167.5,151.5C 167.5,152.833 167.5,154.167 167.5,155.5C 168.833,155.5 170.167,155.5 171.5,155.5C 171.5,156.833 171.5,158.167 171.5,159.5C 170.167,159.5 168.833,159.5 167.5,159.5C 167.338,161.527 167.505,163.527 168,165.5C 169.011,166.337 170.178,166.67 171.5,166.5C 171.5,167.833 171.5,169.167 171.5,170.5C 167.525,171.142 164.192,170.142 161.5,167.5C 161.466,163.37 160.799,159.37 159.5,155.5C 160.5,155.5 161.5,155.5 162.5,155.5C 162.232,153.901 162.566,152.568 163.5,151.5 Z"/></g>
<g><path style="opacity:1" fill="#f6f6fc" d="M 210.5,154.5 C 211.568,155.434 212.901,155.768 214.5,155.5C 214.5,156.833 214.5,158.167 214.5,159.5C 213.167,159.5 211.833,159.5 210.5,159.5C 210.5,161.833 210.5,164.167 210.5,166.5C 211.833,166.5 213.167,166.5 214.5,166.5C 214.5,167.833 214.5,169.167 214.5,170.5C 211.813,170.664 209.146,170.497 206.5,170C 205.748,169.329 205.414,168.496 205.5,167.5C 205.68,163.318 205.013,159.318 203.5,155.5C 205.104,154.713 205.771,153.38 205.5,151.5C 207.167,151.5 208.833,151.5 210.5,151.5C 210.5,152.5 210.5,153.5 210.5,154.5 Z"/></g>
<g><path style="opacity:1" fill="#11219b" d="M 267.5,128.5 C 267.833,128.5 268.167,128.5 268.5,128.5C 268.667,140.838 268.5,153.171 268,165.5C 249.78,179.387 231.28,192.887 212.5,206C 211.809,207.067 211.309,208.234 211,209.5C 210.503,206.854 210.336,204.187 210.5,201.5C 207.287,201.19 204.287,201.523 201.5,202.5C 201.5,206.5 201.5,210.5 201.5,214.5C 204.5,214.5 207.5,214.5 210.5,214.5C 206.239,215.126 201.906,215.959 197.5,217C 172.989,234.756 148.655,252.756 124.5,271C 122.981,270.669 121.648,270.836 120.5,271.5C 113.131,267.152 105.798,262.819 98.5,258.5C 100.475,258.836 102.475,258.336 104.5,257C 122.693,243.307 141.026,229.807 159.5,216.5C 160.167,211.683 160.834,207.017 161.5,202.5C 161.5,206.5 161.5,210.5 161.5,214.5C 162.5,214.5 163.5,214.5 164.5,214.5C 164.5,210.5 164.5,206.5 164.5,202.5C 165.324,206.312 165.824,210.312 166,214.5C 166.437,211.228 168.27,209.561 171.5,209.5C 170.962,211.117 170.629,212.784 170.5,214.5C 172.685,214.112 174.518,213.112 176,211.5C 177.531,212.217 178.864,213.217 180,214.5C 181.03,214.164 181.53,213.497 181.5,212.5C 181.79,209.472 183.457,207.472 186.5,206.5C 187.318,209.107 187.818,211.774 188,214.5C 188.183,211.635 188.683,208.969 189.5,206.5C 189.5,209.167 189.5,211.833 189.5,214.5C 190.833,214.5 192.167,214.5 193.5,214.5C 193.5,211.5 193.5,208.5 193.5,205.5C 194.5,205.5 195.5,205.5 196.5,205.5C 196.5,204.5 196.5,203.5 196.5,202.5C 193.167,202.5 189.833,202.5 186.5,202.5C 189.641,201.679 192.975,201.179 196.5,201C 195.833,200.667 195.167,200.333 194.5,200C 199.167,196.667 203.833,193.333 208.5,190C 213.351,189.826 218.018,189.326 222.5,188.5C 222.5,187.833 222.5,187.167 222.5,186.5C 216.916,184.705 210.916,183.871 204.5,184C 224.887,168.613 245.553,153.613 266.5,139C 267.456,135.606 267.789,132.106 267.5,128.5 Z"/></g>
<g><path style="opacity:1" fill="#f2f3fc" d="M 114.5,155.5 C 115.5,155.5 116.5,155.5 117.5,155.5C 117.5,157.167 117.5,158.833 117.5,160.5C 115.833,160.5 114.167,160.5 112.5,160.5C 112.5,163.833 112.5,167.167 112.5,170.5C 110.5,170.5 108.5,170.5 106.5,170.5C 106.5,165.5 106.5,160.5 106.5,155.5C 109.309,155.957 111.976,155.957 114.5,155.5 Z"/></g>
<g><path style="opacity:1" fill="#eeeff9" d="M 187.5,164.5 C 184.482,164.335 181.482,164.502 178.5,165C 180.937,166.375 183.603,166.875 186.5,166.5C 186.5,167.833 186.5,169.167 186.5,170.5C 183.833,170.5 181.167,170.5 178.5,170.5C 176.629,170.141 175.129,169.141 174,167.5C 172.505,162.431 173.672,158.264 177.5,155C 185.172,153.504 188.505,156.67 187.5,164.5 Z"/></g>
<g><path style="opacity:1" fill="#ededf9" d="M 201.5,155.5 C 201.5,156.833 201.5,158.167 201.5,159.5C 199.5,159.5 197.5,159.5 195.5,159.5C 194.094,164.931 196.094,167.265 201.5,166.5C 201.5,167.833 201.5,169.167 201.5,170.5C 192.891,172.552 188.891,169.218 189.5,160.5C 191.843,154.998 195.843,153.331 201.5,155.5 Z"/></g>
<g><path style="opacity:1" fill="#4138d2" d="M 93.5,156.5 C 95.2155,157.574 96.2155,159.241 96.5,161.5C 95.3112,162.429 93.9778,162.762 92.5,162.5C 92.8333,160.5 93.1667,158.5 93.5,156.5 Z"/></g>
<g><path style="opacity:1" fill="#6862c5" d="M 179.5,158.5 C 180.995,158.415 181.995,159.081 182.5,160.5C 181.167,161.833 179.833,161.833 178.5,160.5C 178.863,159.817 179.196,159.15 179.5,158.5 Z"/></g>
<g><path style="opacity:1" fill="#999dda" d="M 201.5,155.5 C 202.167,155.5 202.833,155.5 203.5,155.5C 205.013,159.318 205.68,163.318 205.5,167.5C 204.527,165.052 204.194,162.385 204.5,159.5C 203.5,159.5 202.5,159.5 201.5,159.5C 201.5,158.167 201.5,156.833 201.5,155.5 Z"/></g>
<g><path style="opacity:1" fill="#262dca" d="M 197.5,107.5 C 191.967,112.521 185.967,117.021 179.5,121C 177.875,121.853 177.542,122.853 178.5,124C 176.942,124.21 175.609,124.71 174.5,125.5C 173.078,125.709 171.745,126.209 170.5,127C 165.946,136.603 168.946,141.436 179.5,141.5C 180.738,141.81 180.738,142.31 179.5,143C 177.231,143.758 175.064,143.591 173,142.5C 170.167,144.667 167.333,146.833 164.5,149C 165.5,149.333 166.5,149.667 167.5,150C 165.942,150.21 164.609,150.71 163.5,151.5C 162.566,152.568 162.232,153.901 162.5,155.5C 161.5,155.5 160.5,155.5 159.5,155.5C 160.799,159.37 161.466,163.37 161.5,167.5C 160.612,165.967 160.112,163.634 160,160.5C 159.821,164.025 159.321,167.359 158.5,170.5C 158.5,165.167 158.5,159.833 158.5,154.5C 156.265,154.205 154.265,154.539 152.5,155.5C 151.834,160.349 151.167,165.349 150.5,170.5C 149.833,166.018 149.166,161.684 148.5,157.5C 146.54,154.437 143.873,153.771 140.5,155.5C 139.526,153.257 139.192,150.924 139.5,148.5C 137.5,148.5 135.5,148.5 133.5,148.5C 133.175,156.019 133.508,163.352 134.5,170.5C 135.952,171.302 137.618,171.802 139.5,172C 136.833,172.333 134.167,172.667 131.5,173C 126.5,176.667 121.5,180.333 116.5,184C 125.01,184.171 133.343,184.671 141.5,185.5C 119.993,185.169 98.6601,185.503 77.5,186.5C 76.9569,186.56 76.6236,186.893 76.5,187.5C 99.8238,188.5 123.157,188.833 146.5,188.5C 132.339,189.331 118.006,189.831 103.5,190C 96.6548,194.21 91.3214,198.376 87.5,202.5C 87.1667,203.167 86.8333,203.833 86.5,204.5C 85.5768,203.697 84.5768,203.53 83.5,204C 72.8333,212 62.1667,220 51.5,228C 49.8659,228.494 48.1992,228.66 46.5,228.5C 41.2156,225.863 36.2156,222.863 31.5,219.5C 31.4121,213.467 31.5787,207.134 32,200.5C 48.589,188.455 65.089,176.289 81.5,164C 83.1933,163.516 84.5267,164.016 85.5,165.5C 84.962,167.117 84.6287,168.784 84.5,170.5C 88.8333,169.167 93.1667,167.833 97.5,166.5C 97.33,167.822 97.6634,168.989 98.5,170C 100.712,170.789 102.712,170.622 104.5,169.5C 105.167,169.833 105.833,170.167 106.5,170.5C 108.5,170.5 110.5,170.5 112.5,170.5C 112.5,167.167 112.5,163.833 112.5,160.5C 114.167,160.5 115.833,160.5 117.5,160.5C 117.5,158.833 117.5,157.167 117.5,155.5C 116.5,155.5 115.5,155.5 114.5,155.5C 115.263,154.732 116.263,154.232 117.5,154C 116.833,153.667 116.167,153.333 115.5,153C 119.653,149.425 123.986,146.091 128.5,143C 127.956,142.283 127.289,141.783 126.5,141.5C 126.833,140.833 127.167,140.167 127.5,139.5C 128.167,134.833 128.833,130.167 129.5,125.5C 129.334,130.179 129.501,134.845 130,139.5C 130.956,140.894 132.289,141.561 134,141.5C 135.825,141.057 137.658,140.723 139.5,140.5C 140.919,141.451 142.585,141.784 144.5,141.5C 144.5,136.167 144.5,130.833 144.5,125.5C 142.265,125.205 140.265,125.539 138.5,126.5C 138.665,129.85 138.498,133.183 138,136.5C 137.586,136.957 137.086,137.291 136.5,137.5C 135.509,133.555 135.176,129.555 135.5,125.5C 135.119,124.069 134.119,123.236 132.5,123C 139.5,118 146.5,113 153.5,108C 168.163,107.5 182.83,107.333 197.5,107.5 Z"/></g>
<g><path style="opacity:1" fill="#8a90db" d="M 152.5,155.5 C 154.265,154.539 156.265,154.205 158.5,154.5C 158.5,159.833 158.5,165.167 158.5,170.5C 158.167,170.5 157.833,170.5 157.5,170.5C 157.5,165.5 157.5,160.5 157.5,155.5C 155.833,155.5 154.167,155.5 152.5,155.5 Z"/></g>
<g><path style="opacity:1" fill="#fefefe" d="M 152.5,155.5 C 154.167,155.5 155.833,155.5 157.5,155.5C 157.5,160.5 157.5,165.5 157.5,170.5C 155.833,170.5 154.167,170.5 152.5,170.5C 152.5,165.5 152.5,160.5 152.5,155.5 Z"/></g>
<g><path style="opacity:1" fill="#e9e9f9" d="M 123.5,154.5 C 125.92,154.292 128.253,154.626 130.5,155.5C 131.429,156.689 131.762,158.022 131.5,159.5C 125.338,158.156 123.338,160.322 125.5,166C 127.473,166.495 129.473,166.662 131.5,166.5C 131.5,167.833 131.5,169.167 131.5,170.5C 121.85,172.633 117.683,168.966 119,159.5C 120.025,157.313 121.525,155.646 123.5,154.5 Z"/></g>
<g><path style="opacity:1" fill="#f3f3fc" d="M 148.5,157.5 C 148.5,161.833 148.5,166.167 148.5,170.5C 146.833,170.5 145.167,170.5 143.5,170.5C 143.665,166.818 143.499,163.152 143,159.5C 142,158.167 141,158.167 140,159.5C 139.501,163.152 139.335,166.818 139.5,170.5C 137.833,170.5 136.167,170.5 134.5,170.5C 133.508,163.352 133.175,156.019 133.5,148.5C 135.5,148.5 137.5,148.5 139.5,148.5C 139.192,150.924 139.526,153.257 140.5,155.5C 143.873,153.771 146.54,154.437 148.5,157.5 Z"/></g>
<g><path style="opacity:1" fill="#eaeaf9" d="M 153.5,147.5 C 158.159,147.015 159.492,148.848 157.5,153C 152.728,153.81 151.395,151.977 153.5,147.5 Z"/></g>
<g><path style="opacity:1" fill="#a9abeb" d="M 138.5,126.5 C 140.265,125.539 142.265,125.205 144.5,125.5C 144.5,130.833 144.5,136.167 144.5,141.5C 142.585,141.784 140.919,141.451 139.5,140.5C 140.833,140.5 142.167,140.5 143.5,140.5C 143.5,135.833 143.5,131.167 143.5,126.5C 141.833,126.5 140.167,126.5 138.5,126.5 Z"/></g>
<g><path style="opacity:1" fill="#aaade9" d="M 165.5,126.5 C 163.833,126.5 162.167,126.5 160.5,126.5C 160.5,131.167 160.5,135.833 160.5,140.5C 162.167,140.5 163.833,140.5 165.5,140.5C 163.735,141.461 161.735,141.795 159.5,141.5C 159.5,136.167 159.5,130.833 159.5,125.5C 161.735,125.205 163.735,125.539 165.5,126.5 Z"/></g>
<g><path style="opacity:1" fill="#fdfdfe" d="M 165.5,126.5 C 165.5,131.167 165.5,135.833 165.5,140.5C 163.833,140.5 162.167,140.5 160.5,140.5C 160.5,135.833 160.5,131.167 160.5,126.5C 162.167,126.5 163.833,126.5 165.5,126.5 Z"/></g>
<g><path style="opacity:1" fill="#f4f3fc" d="M 129.5,125.5 C 131.5,125.5 133.5,125.5 135.5,125.5C 135.176,129.555 135.509,133.555 136.5,137.5C 137.086,137.291 137.586,136.957 138,136.5C 138.498,133.183 138.665,129.85 138.5,126.5C 140.167,126.5 141.833,126.5 143.5,126.5C 143.5,131.167 143.5,135.833 143.5,140.5C 142.167,140.5 140.833,140.5 139.5,140.5C 137.658,140.723 135.825,141.057 134,141.5C 132.289,141.561 130.956,140.894 130,139.5C 129.501,134.845 129.334,130.179 129.5,125.5 Z"/></g>
<g><path style="opacity:1" fill="#efeefb" d="M 148.5,121.5 C 150.167,121.5 151.833,121.5 153.5,121.5C 153.5,122.833 153.5,124.167 153.5,125.5C 154.833,125.5 156.167,125.5 157.5,125.5C 157.5,126.833 157.5,128.167 157.5,129.5C 156.167,129.5 154.833,129.5 153.5,129.5C 153.337,131.857 153.503,134.19 154,136.5C 155.011,137.337 156.178,137.67 157.5,137.5C 157.5,138.833 157.5,140.167 157.5,141.5C 153.713,142.186 150.546,141.186 148,138.5C 147.718,134.961 147.218,131.461 146.5,128C 148.013,126.121 148.679,123.954 148.5,121.5 Z"/></g>
<g><path style="opacity:1" fill="#f8f8fd" d="M 160.5,118.5 C 164.5,117.833 166.167,119.5 165.5,123.5C 160.58,124.585 158.913,122.918 160.5,118.5 Z"/></g>
<g><path style="opacity:1" fill="#0c1e8f" d="M 268.5,80.5 C 269.833,126.833 269.833,173.167 268.5,219.5C 268.666,210.161 268.5,200.827 268,191.5C 226.67,222.328 185.004,252.661 143,282.5C 141.627,281.485 140.46,281.485 139.5,282.5C 133.33,278.581 126.997,274.914 120.5,271.5C 121.648,270.836 122.981,270.669 124.5,271C 148.655,252.756 172.989,234.756 197.5,217C 201.906,215.959 206.239,215.126 210.5,214.5C 210.5,213.5 210.5,212.5 210.5,211.5C 208.712,211.785 207.045,211.452 205.5,210.5C 206.689,209.571 208.022,209.238 209.5,209.5C 209.5,208.5 209.5,207.5 209.5,206.5C 204.306,206.058 204.306,205.058 209.5,203.5C 206.914,202.52 204.247,202.187 201.5,202.5C 204.287,201.523 207.287,201.19 210.5,201.5C 210.336,204.187 210.503,206.854 211,209.5C 211.309,208.234 211.809,207.067 212.5,206C 231.28,192.887 249.78,179.387 268,165.5C 268.5,153.171 268.667,140.838 268.5,128.5C 268.5,112.5 268.5,96.5 268.5,80.5 Z"/></g>
<g><path style="opacity:1" fill="#7470ca" d="M 77.5,186.5 C 125.833,186.5 174.167,186.5 222.5,186.5C 222.5,187.167 222.5,187.833 222.5,188.5C 208.5,188.5 194.5,188.5 180.5,188.5C 169.167,188.5 157.833,188.5 146.5,188.5C 123.157,188.833 99.8238,188.5 76.5,187.5C 76.6236,186.893 76.9569,186.56 77.5,186.5 Z"/></g>
<g><path style="opacity:1" fill="#1e28b4" d="M 146.5,188.5 C 157.833,188.5 169.167,188.5 180.5,188.5C 176.688,189.324 172.688,189.824 168.5,190C 162.273,194.097 156.273,198.264 150.5,202.5C 148.167,202.833 146.833,204.167 146.5,206.5C 145.71,207.609 145.21,208.942 145,210.5C 144.779,207.057 143.779,206.724 142,209.5C 141.722,208.584 141.222,207.918 140.5,207.5C 140.703,205.61 140.037,204.11 138.5,203C 129.501,201.824 126.834,205.324 130.5,213.5C 128.692,213.491 127.025,213.991 125.5,215C 110.324,226.776 94.9906,237.609 79.5,247.5C 68.3014,241.404 57.3014,235.071 46.5,228.5C 48.1992,228.66 49.8659,228.494 51.5,228C 62.1667,220 72.8333,212 83.5,204C 84.5768,203.53 85.5768,203.697 86.5,204.5C 85.0991,207.704 84.0991,211.037 83.5,214.5C 84.8333,214.5 86.1667,214.5 87.5,214.5C 87.5,213.5 87.5,212.5 87.5,211.5C 89.952,211.624 91.952,212.624 93.5,214.5C 94.1667,214.167 94.8333,213.833 95.5,213.5C 94.3624,210.087 93.0291,206.754 91.5,203.5C 90.3112,202.571 88.9778,202.238 87.5,202.5C 91.3214,198.376 96.6548,194.21 103.5,190C 118.006,189.831 132.339,189.331 146.5,188.5 Z"/></g>
<g><path style="opacity:1" fill="#071a84" d="M 268.5,219.5 C 229.527,241.988 190.527,264.488 151.5,287C 147.017,286.931 143.017,285.431 139.5,282.5C 140.46,281.485 141.627,281.485 143,282.5C 185.004,252.661 226.67,222.328 268,191.5C 268.5,200.827 268.666,210.161 268.5,219.5 Z"/></g>
<g><path style="opacity:1" fill="#dedcf5" d="M 87.5,202.5 C 88.9778,202.238 90.3112,202.571 91.5,203.5C 93.0291,206.754 94.3624,210.087 95.5,213.5C 94.8333,213.833 94.1667,214.167 93.5,214.5C 91.952,212.624 89.952,211.624 87.5,211.5C 87.5,212.5 87.5,213.5 87.5,214.5C 86.1667,214.5 84.8333,214.5 83.5,214.5C 84.0991,211.037 85.0991,207.704 86.5,204.5C 86.8333,203.833 87.1667,203.167 87.5,202.5 Z"/></g>
<g><path style="opacity:1" fill="#f2f2fa" d="M 101.5,202.5 C 107.697,202.325 108.363,203.325 103.5,205.5C 104.914,206.624 106.414,207.624 108,208.5C 108.863,210.749 108.363,212.582 106.5,214C 104.527,214.495 102.527,214.662 100.5,214.5C 100.5,213.5 100.5,212.5 100.5,211.5C 106.891,211.715 107.058,210.715 101,208.5C 100.322,206.402 100.489,204.402 101.5,202.5 Z"/></g>
<g><path style="opacity:1" fill="#e9e9f7" d="M 115.5,202.5 C 117.924,202.192 120.257,202.526 122.5,203.5C 115.979,204.829 115.979,206.329 122.5,208C 123.935,210.267 123.602,212.267 121.5,214C 119.19,214.497 116.857,214.663 114.5,214.5C 114.5,213.5 114.5,212.5 114.5,211.5C 120.641,211.899 120.975,210.899 115.5,208.5C 114.306,206.484 114.306,204.484 115.5,202.5 Z"/></g>
<g><path style="opacity:1" fill="#eaebf7" d="M 140.5,207.5 C 139.954,214.037 136.62,216.037 130.5,213.5C 126.834,205.324 129.501,201.824 138.5,203C 140.037,204.11 140.703,205.61 140.5,207.5 Z"/></g>
<g><path style="opacity:1" fill="#e5e5f5" d="M 150.5,202.5 C 152.167,202.5 153.833,202.5 155.5,202.5C 155.5,203.5 155.5,204.5 155.5,205.5C 153.833,205.5 152.167,205.5 150.5,205.5C 149.425,209.938 151.092,211.938 155.5,211.5C 155.5,212.5 155.5,213.5 155.5,214.5C 149.325,215.323 146.325,212.656 146.5,206.5C 146.833,204.167 148.167,202.833 150.5,202.5 Z"/></g>
<g><path style="opacity:1" fill="#dddef1" d="M 186.5,202.5 C 189.833,202.5 193.167,202.5 196.5,202.5C 196.5,203.5 196.5,204.5 196.5,205.5C 195.5,205.5 194.5,205.5 193.5,205.5C 193.5,208.5 193.5,211.5 193.5,214.5C 192.167,214.5 190.833,214.5 189.5,214.5C 189.5,211.833 189.5,209.167 189.5,206.5C 188.791,205.596 187.791,205.263 186.5,205.5C 186.5,204.5 186.5,203.5 186.5,202.5 Z"/></g>
<g><path style="opacity:1" fill="#dcdef0" d="M 201.5,202.5 C 204.247,202.187 206.914,202.52 209.5,203.5C 204.306,205.058 204.306,206.058 209.5,206.5C 209.5,207.5 209.5,208.5 209.5,209.5C 208.022,209.238 206.689,209.571 205.5,210.5C 207.045,211.452 208.712,211.785 210.5,211.5C 210.5,212.5 210.5,213.5 210.5,214.5C 207.5,214.5 204.5,214.5 201.5,214.5C 201.5,210.5 201.5,206.5 201.5,202.5 Z"/></g>
<g><path style="opacity:1" fill="#1623a6" d="M 180.5,188.5 C 194.5,188.5 208.5,188.5 222.5,188.5C 218.018,189.326 213.351,189.826 208.5,190C 203.833,193.333 199.167,196.667 194.5,200C 195.167,200.333 195.833,200.667 196.5,201C 192.975,201.179 189.641,201.679 186.5,202.5C 186.5,203.5 186.5,204.5 186.5,205.5C 187.791,205.263 188.791,205.596 189.5,206.5C 188.683,208.969 188.183,211.635 188,214.5C 187.818,211.774 187.318,209.107 186.5,206.5C 183.457,207.472 181.79,209.472 181.5,212.5C 180.705,209.45 179.705,206.45 178.5,203.5C 176.955,202.548 175.288,202.215 173.5,202.5C 173.233,204.965 172.566,207.299 171.5,209.5C 168.27,209.561 166.437,211.228 166,214.5C 165.824,210.312 165.324,206.312 164.5,202.5C 163.5,202.5 162.5,202.5 161.5,202.5C 160.834,207.017 160.167,211.683 159.5,216.5C 141.026,229.807 122.693,243.307 104.5,257C 102.475,258.336 100.475,258.836 98.5,258.5C 91.9677,255.071 85.6343,251.404 79.5,247.5C 94.9906,237.609 110.324,226.776 125.5,215C 127.025,213.991 128.692,213.491 130.5,213.5C 136.62,216.037 139.954,214.037 140.5,207.5C 141.222,207.918 141.722,208.584 142,209.5C 143.779,206.724 144.779,207.057 145,210.5C 145.21,208.942 145.71,207.609 146.5,206.5C 146.325,212.656 149.325,215.323 155.5,214.5C 155.5,213.5 155.5,212.5 155.5,211.5C 151.092,211.938 149.425,209.938 150.5,205.5C 152.167,205.5 153.833,205.5 155.5,205.5C 155.5,204.5 155.5,203.5 155.5,202.5C 153.833,202.5 152.167,202.5 150.5,202.5C 156.273,198.264 162.273,194.097 168.5,190C 172.688,189.824 176.688,189.324 180.5,188.5 Z"/></g>
<g><path style="opacity:1" fill="#e0e0f2" d="M 181.5,212.5 C 181.53,213.497 181.03,214.164 180,214.5C 178.864,213.217 177.531,212.217 176,211.5C 174.518,213.112 172.685,214.112 170.5,214.5C 170.629,212.784 170.962,211.117 171.5,209.5C 172.566,207.299 173.233,204.965 173.5,202.5C 175.288,202.215 176.955,202.548 178.5,203.5C 179.705,206.45 180.705,209.45 181.5,212.5 Z"/></g>
<g><path style="opacity:1" fill="#eff0f9" d="M 161.5,202.5 C 162.5,202.5 163.5,202.5 164.5,202.5C 164.5,206.5 164.5,210.5 164.5,214.5C 163.5,214.5 162.5,214.5 161.5,214.5C 161.5,210.5 161.5,206.5 161.5,202.5 Z"/></g>
<g><path style="opacity:1" fill="#2e2aad" d="M 133.5,204.5 C 137.264,205.385 138.264,207.552 136.5,211C 135.216,211.684 134.049,211.517 133,210.5C 132.322,208.402 132.489,206.402 133.5,204.5 Z"/></g>
</svg>
