<?xml version="1.0" encoding="UTF-8" standalone="no"?>
<svg
   version="1.1"
   width="690px"
   height="362px"
   style="shape-rendering:geometricPrecision; text-rendering:geometricPrecision; image-rendering:optimizeQuality; fill-rule:evenodd; clip-rule:evenodd"
   id="svg57"
   sodipodi:docname="ISC2CC.svg"
   inkscape:version="1.3.2 (091e20ef0f, 2023-11-25)"
   xmlns:inkscape="http://www.inkscape.org/namespaces/inkscape"
   xmlns:sodipodi="http://sodipodi.sourceforge.net/DTD/sodipodi-0.dtd"
   xmlns="http://www.w3.org/2000/svg"
   xmlns:svg="http://www.w3.org/2000/svg">
  <defs
     id="defs57" />
  <sodipodi:namedview
     id="namedview57"
     pagecolor="#ffffff"
     bordercolor="#000000"
     borderopacity="0.25"
     inkscape:showpageshadow="2"
     inkscape:pageopacity="0.0"
     inkscape:pagecheckerboard="0"
     inkscape:deskcolor="#d1d1d1"
     inkscape:zoom="1.3057971"
     inkscape:cx="345"
     inkscape:cy="181.11543"
     inkscape:window-width="1920"
     inkscape:window-height="1043"
     inkscape:window-x="0"
     inkscape:window-y="0"
     inkscape:window-maximized="1"
     inkscape:current-layer="svg57" />
  <g
     id="g1">
    <path
       style="opacity:0.782"
       fill="#bddddc"
       d="M 460.5,11.5 C 385.782,10.1847 308.448,10.1847 228.5,11.5C 232.264,10.1682 236.264,9.33489 240.5,9C 309.833,8.33333 379.167,8.33333 448.5,9C 452.767,9.18939 456.767,10.0227 460.5,11.5 Z"
       id="path1" />
  </g>
  <g
     id="g2">
    <path
       style="opacity:1"
       fill="#8bc0c1"
       d="M 460.5,11.5 C 492.037,19.3716 510.371,39.3716 515.5,71.5C 515.5,111.5 515.5,151.5 515.5,191.5C 507.167,191.5 498.833,191.5 490.5,191.5C 490.667,152.165 490.5,112.832 490,73.5C 489.79,71.9419 489.29,70.6085 488.5,69.5C 482.406,52.2448 470.406,41.4114 452.5,37C 380.833,36.3333 309.167,36.3333 237.5,37C 217.333,41.1667 205.167,53.3333 201,73.5C 200.333,145.167 200.333,216.833 201,288.5C 204.059,303.723 212.559,314.723 226.5,321.5C 226.5,322.833 226.5,324.167 226.5,325.5C 230.829,324.428 235.162,324.595 239.5,326C 278.165,326.5 316.832,326.667 355.5,326.5C 355.5,334.833 355.5,343.167 355.5,351.5C 316.167,351.5 276.833,351.5 237.5,351.5C 203.077,346.744 182.077,327.41 174.5,293.5C 173.17,218.497 173.17,143.497 174.5,68.5C 179.317,42.5037 193.984,24.337 218.5,14C 221.72,12.6476 225.053,11.8143 228.5,11.5C 308.448,10.1847 385.782,10.1847 460.5,11.5 Z"
       id="path2" />
  </g>
  <g
     id="g3">
    <path
       style="opacity:0.299"
       fill="#daeef5"
       d="M 174.5,68.5 C 173.17,143.497 173.17,218.497 174.5,293.5C 173.732,292.737 173.232,291.737 173,290.5C 172.333,217.5 172.333,144.5 173,71.5C 173.232,70.2625 173.732,69.2625 174.5,68.5 Z"
       id="path3" />
  </g>
  <g
     id="g4">
    <path
       style="opacity:0.306"
       fill="#d2e9e9"
       d="M 488.5,69.5 C 489.29,70.6085 489.79,71.9419 490,73.5C 490.5,112.832 490.667,152.165 490.5,191.5C 498.833,191.5 507.167,191.5 515.5,191.5C 515.5,151.5 515.5,111.5 515.5,71.5C 516.499,111.663 516.832,151.997 516.5,192.5C 507.5,192.5 498.5,192.5 489.5,192.5C 489.793,151.485 489.46,110.485 488.5,69.5 Z"
       id="path4" />
  </g>
  <g
     id="g5">
    <path
       style="opacity:0.322"
       fill="#a5a5a5"
       d="M 318.5,154.5 C 313.463,154.413 308.463,154.746 303.5,155.5C 306.186,154.009 309.186,153.343 312.5,153.5C 314.696,153.505 316.696,153.838 318.5,154.5 Z"
       id="path5" />
  </g>
  <g
     id="g6">
    <path
       style="opacity:0.443"
       fill="#9b9b9b"
       d="M 370.5,154.5 C 365.463,154.413 360.463,154.746 355.5,155.5C 358.186,154.009 361.186,153.343 364.5,153.5C 366.696,153.505 368.696,153.838 370.5,154.5 Z"
       id="path6" />
  </g>
  <g
     id="g7"
     style="fill:#ffffff">
    <path
       style="opacity:1;fill:#ffffff"
       fill="#181818"
       d="M 318.5,154.5 C 325.126,155.131 329.793,158.464 332.5,164.5C 332.443,165.609 332.11,166.609 331.5,167.5C 329.853,169.326 327.853,170.66 325.5,171.5C 324.391,171.443 323.391,171.11 322.5,170.5C 315.102,162.223 308.102,162.556 301.5,171.5C 300.778,171.918 300.278,172.584 300,173.5C 299.186,178.02 299.353,182.354 300.5,186.5C 301.234,187.708 301.567,189.041 301.5,190.5C 301.427,192.027 302.094,193.027 303.5,193.5C 304.872,194.512 306.205,195.512 307.5,196.5C 310.64,197.641 313.973,197.808 317.5,197C 318.056,196.617 318.389,196.117 318.5,195.5C 320.5,195.5 321.5,194.5 321.5,192.5C 321.328,191.508 321.662,190.842 322.5,190.5C 323.167,190.167 323.833,189.833 324.5,189.5C 326.969,190.569 329.302,191.902 331.5,193.5C 331.833,194.833 332.167,196.167 332.5,197.5C 328.089,204.628 321.589,208.295 313,208.5C 308.905,208.352 305.071,207.352 301.5,205.5C 301.027,204.094 300.027,203.427 298.5,203.5C 298.027,202.094 297.027,201.427 295.5,201.5C 294.5,201.167 293.833,200.5 293.5,199.5C 293.446,197.368 292.446,196.035 290.5,195.5C 286.239,187.652 285.406,179.319 288,170.5C 288.608,168.934 289.442,167.6 290.5,166.5C 292.262,165.738 293.262,164.404 293.5,162.5C 294.911,160.086 296.911,158.419 299.5,157.5C 301.027,157.573 302.027,156.906 302.5,155.5C 302.833,155.5 303.167,155.5 303.5,155.5C 308.463,154.746 313.463,154.413 318.5,154.5 Z"
       id="path7" />
  </g>
  <g
     id="g8"
     style="fill:#ffffff">
    <path
       style="opacity:1;fill:#ffffff"
       fill="#171717"
       d="M 370.5,154.5 C 375.485,155.153 379.485,157.486 382.5,161.5C 382.427,163.027 383.094,164.027 384.5,164.5C 384.443,165.609 384.11,166.609 383.5,167.5C 381.439,169.711 378.939,171.377 376,172.5C 374.251,172.252 373.418,171.252 373.5,169.5C 373.167,167.167 371.833,165.833 369.5,165.5C 361.461,162.936 355.961,165.603 353,173.5C 351.008,181.038 352.174,188.038 356.5,194.5C 356.821,196.048 357.821,196.715 359.5,196.5C 366.038,197.919 371.038,195.919 374.5,190.5C 375.167,190.167 375.833,189.833 376.5,189.5C 377.492,189.328 378.158,189.662 378.5,190.5C 379.035,192.446 380.368,193.446 382.5,193.5C 383.301,195.042 383.634,196.708 383.5,198.5C 382.094,198.973 381.427,199.973 381.5,201.5C 379.244,204.405 376.244,206.072 372.5,206.5C 366.131,206.653 359.797,206.32 353.5,205.5C 353.027,204.094 352.027,203.427 350.5,203.5C 350.027,202.094 349.027,201.427 347.5,201.5C 343.064,198.302 340.398,193.969 339.5,188.5C 339.36,182.464 339.693,176.464 340.5,170.5C 340.5,170.167 340.5,169.833 340.5,169.5C 341.906,169.027 342.573,168.027 342.5,166.5C 342.738,164.596 343.738,163.262 345.5,162.5C 346.833,161.833 347.833,160.833 348.5,159.5C 348.973,158.094 349.973,157.427 351.5,157.5C 353.027,157.573 354.027,156.906 354.5,155.5C 354.833,155.5 355.167,155.5 355.5,155.5C 360.463,154.746 365.463,154.413 370.5,154.5 Z"
       id="path8" />
  </g>
  <g
     id="g9">
    <path
       style="opacity:0.643"
       fill="#a3a3a3"
       d="M 302.5,155.5 C 302.027,156.906 301.027,157.573 299.5,157.5C 299.973,156.094 300.973,155.427 302.5,155.5 Z"
       id="path9" />
  </g>
  <g
     id="g10">
    <path
       style="opacity:0.725"
       fill="#8d8d8d"
       d="M 354.5,155.5 C 354.027,156.906 353.027,157.573 351.5,157.5C 351.973,156.094 352.973,155.427 354.5,155.5 Z"
       id="path10" />
  </g>
  <g
     id="g11">
    <path
       style="opacity:0.518"
       fill="#a1a1a1"
       d="M 348.5,159.5 C 347.833,160.833 346.833,161.833 345.5,162.5C 345.5,160.5 346.5,159.5 348.5,159.5 Z"
       id="path11" />
  </g>
  <g
     id="g12">
    <path
       style="opacity:0.345"
       fill="#afafaf"
       d="M 382.5,161.5 C 383.906,161.973 384.573,162.973 384.5,164.5C 383.094,164.027 382.427,163.027 382.5,161.5 Z"
       id="path12" />
  </g>
  <g
     id="g13">
    <path
       style="opacity:0.725"
       fill="#7f7f7f"
       d="M 293.5,162.5 C 293.262,164.404 292.262,165.738 290.5,166.5C 290.738,164.596 291.738,163.262 293.5,162.5 Z"
       id="path13" />
  </g>
  <g
     id="g14">
    <path
       style="opacity:0.71"
       fill="#a2a2a2"
       d="M 369.5,165.5 C 371.833,165.833 373.167,167.167 373.5,169.5C 371.833,168.5 370.5,167.167 369.5,165.5 Z"
       id="path14" />
  </g>
  <g
     id="g15">
    <path
       style="opacity:0.098"
       fill="#bababa"
       d="M 332.5,164.5 C 333.885,165.947 333.552,166.947 331.5,167.5C 332.11,166.609 332.443,165.609 332.5,164.5 Z"
       id="path15" />
  </g>
  <g
     id="g16">
    <path
       style="opacity:0.067"
       fill="#cccccc"
       d="M 384.5,164.5 C 385.885,165.947 385.552,166.947 383.5,167.5C 384.11,166.609 384.443,165.609 384.5,164.5 Z"
       id="path16" />
  </g>
  <g
     id="g17">
    <path
       style="opacity:0.259"
       fill="#b6b6b6"
       d="M 342.5,166.5 C 342.573,168.027 341.906,169.027 340.5,169.5C 340.427,167.973 341.094,166.973 342.5,166.5 Z"
       id="path17" />
  </g>
  <g
     id="g18">
    <path
       style="opacity:0.122"
       fill="#b2b2b2"
       d="M 322.5,170.5 C 323.391,171.11 324.391,171.443 325.5,171.5C 324.053,172.885 323.053,172.552 322.5,170.5 Z"
       id="path18" />
  </g>
  <g
     id="g19">
    <path
       style="opacity:0.103"
       fill="#c1c1c1"
       d="M 301.5,171.5 C 300.671,176.453 300.337,181.453 300.5,186.5C 299.353,182.354 299.186,178.02 300,173.5C 300.278,172.584 300.778,171.918 301.5,171.5 Z"
       id="path19" />
  </g>
  <g
     id="g20">
    <path
       style="opacity:0.757"
       fill="#7b7b7b"
       d="M 340.5,170.5 C 339.693,176.464 339.36,182.464 339.5,188.5C 338.349,183.35 338.183,178.016 339,172.5C 339.278,171.584 339.778,170.918 340.5,170.5 Z"
       id="path20" />
  </g>
  <g
     id="g21">
    <path
       style="opacity:0.149"
       fill="#e0e0e0"
       d="M 324.5,189.5 C 323.833,189.833 323.167,190.167 322.5,190.5C 322.711,188.576 323.377,188.243 324.5,189.5 Z"
       id="path21" />
  </g>
  <g
     id="g22">
    <path
       style="opacity:0.118"
       fill="#dbdbdb"
       d="M 376.5,189.5 C 375.833,189.833 375.167,190.167 374.5,190.5C 374.711,188.576 375.377,188.243 376.5,189.5 Z"
       id="path22" />
  </g>
  <g
     id="g23">
    <path
       style="opacity:0.922"
       fill="#7f7f7f"
       d="M 378.5,190.5 C 380.23,191.026 381.564,192.026 382.5,193.5C 380.368,193.446 379.035,192.446 378.5,190.5 Z"
       id="path23" />
  </g>
  <g
     id="g24">
    <path
       style="opacity:0.349"
       fill="#acacac"
       d="M 301.5,190.5 C 302.906,190.973 303.573,191.973 303.5,193.5C 302.094,193.027 301.427,192.027 301.5,190.5 Z"
       id="path24" />
  </g>
  <g
     id="g25">
    <path
       style="opacity:0.776"
       fill="#7d7d7d"
       d="M 321.5,192.5 C 321.5,194.5 320.5,195.5 318.5,195.5C 319.167,194.167 320.167,193.167 321.5,192.5 Z"
       id="path25" />
  </g>
  <g
     id="g26">
    <path
       style="opacity:1"
       fill="#3a3a3a"
       d="M 398.5,193.5 C 398.833,193.5 399.167,193.5 399.5,193.5C 400.901,193.971 402.234,194.638 403.5,195.5C 402.214,195.476 400.88,195.81 399.5,196.5C 401.035,198.052 402.869,199.385 405,200.5C 405.579,207.216 402.746,209.216 396.5,206.5C 395.89,205.609 395.557,204.609 395.5,203.5C 396.167,202.167 396.833,202.167 397.5,203.5C 399.035,204.788 400.701,204.788 402.5,203.5C 402.376,202.893 402.043,202.56 401.5,202.5C 399.447,202.598 397.78,201.931 396.5,200.5C 396.166,197.812 396.832,195.479 398.5,193.5 Z"
       id="path26" />
  </g>
  <g
     id="g27">
    <path
       style="opacity:1"
       fill="#1f1f1f"
       d="M 407.5,193.5 C 410.949,193.376 412.949,195.043 413.5,198.5C 414.167,201.167 414.833,201.167 415.5,198.5C 416.906,198.027 417.573,197.027 417.5,195.5C 418.15,195.196 418.817,194.863 419.5,194.5C 420.491,198.445 420.824,202.445 420.5,206.5C 418.803,204.695 417.97,202.361 418,199.5C 417.487,200.527 416.987,201.527 416.5,202.5C 415.292,203.234 413.959,203.567 412.5,203.5C 412.5,202.833 412.167,202.5 411.5,202.5C 411.167,201.167 410.833,201.167 410.5,202.5C 410.5,203.833 410.5,205.167 410.5,206.5C 409.5,206.5 408.5,206.5 407.5,206.5C 407.5,202.167 407.5,197.833 407.5,193.5 Z"
       id="path27" />
  </g>
  <g
     id="g28">
    <path
       style="opacity:0.447"
       fill="#989898"
       d="M 331.5,193.5 C 333.519,194.538 333.853,195.872 332.5,197.5C 332.167,196.167 331.833,194.833 331.5,193.5 Z"
       id="path28" />
  </g>
  <g
     id="g29">
    <path
       style="opacity:0.902"
       fill="#7f7f7f"
       d="M 356.5,194.5 C 357.71,194.932 358.71,195.599 359.5,196.5C 357.821,196.715 356.821,196.048 356.5,194.5 Z"
       id="path29" />
  </g>
  <g
     id="g30">
    <path
       style="opacity:0.988"
       fill="#818181"
       d="M 382.5,193.5 C 385.972,194.577 386.305,196.244 383.5,198.5C 383.634,196.708 383.301,195.042 382.5,193.5 Z"
       id="path30" />
  </g>
  <g
     id="g31">
    <path
       style="opacity:0.984"
       fill="#656565"
       d="M 399.5,193.5 C 399.56,192.957 399.893,192.624 400.5,192.5C 402.565,192.953 404.232,193.953 405.5,195.5C 405.113,196.72 404.28,197.387 403,197.5C 401.862,197.011 400.695,196.678 399.5,196.5C 400.88,195.81 402.214,195.476 403.5,195.5C 402.234,194.638 400.901,193.971 399.5,193.5 Z"
       id="path31" />
  </g>
  <g
     id="g32">
    <path
       style="opacity:0.022"
       fill="#c7c7c7"
       d="M 318.5,195.5 C 318.389,196.117 318.056,196.617 317.5,197C 313.973,197.808 310.64,197.641 307.5,196.5C 311.234,196.677 314.901,196.344 318.5,195.5 Z"
       id="path32" />
  </g>
  <g
     id="g33">
    <path
       style="opacity:0.659"
       fill="#878787"
       d="M 290.5,195.5 C 292.446,196.035 293.446,197.368 293.5,199.5C 292.026,198.564 291.026,197.23 290.5,195.5 Z"
       id="path33" />
  </g>
  <g
     id="g34">
    <path
       style="opacity:0.875"
       fill="#848484"
       d="M 398.5,193.5 C 396.832,195.479 396.166,197.812 396.5,200.5C 393.879,197.377 394.546,195.043 398.5,193.5 Z"
       id="path34" />
  </g>
  <g
     id="g35">
    <path
       style="opacity:0.357"
       fill="#b0b0b0"
       d="M 417.5,195.5 C 417.573,197.027 416.906,198.027 415.5,198.5C 415.427,196.973 416.094,195.973 417.5,195.5 Z"
       id="path35" />
  </g>
  <g
     id="g36">
    <path
       style="opacity:0.004"
       fill="#cfcfcf"
       d="M 383.5,198.5 C 383.573,200.027 382.906,201.027 381.5,201.5C 381.427,199.973 382.094,198.973 383.5,198.5 Z"
       id="path36" />
  </g>
  <g
     id="g37">
    <path
       style="opacity:0.567"
       fill="#969696"
       d="M 413.5,198.5 C 414.167,198.5 414.833,198.5 415.5,198.5C 414.833,201.167 414.167,201.167 413.5,198.5 Z"
       id="path37" />
  </g>
  <g
     id="g38">
    <path
       style="opacity:0.038"
       fill="#efefef"
       d="M 421.5,193.5 C 422.486,197.97 422.819,202.637 422.5,207.5C 420.833,207.5 419.167,207.5 417.5,207.5C 417.784,205.585 417.451,203.919 416.5,202.5C 416.987,201.527 417.487,200.527 418,199.5C 417.97,202.361 418.803,204.695 420.5,206.5C 421.485,202.366 421.818,198.032 421.5,193.5 Z"
       id="path38" />
  </g>
  <g
     id="g39">
    <path
       style="opacity:0.612"
       fill="#a6a6a6"
       d="M 295.5,201.5 C 297.027,201.427 298.027,202.094 298.5,203.5C 296.973,203.573 295.973,202.906 295.5,201.5 Z"
       id="path39" />
  </g>
  <g
     id="g40">
    <path
       style="opacity:0.537"
       fill="#969696"
       d="M 347.5,201.5 C 349.027,201.427 350.027,202.094 350.5,203.5C 348.973,203.573 347.973,202.906 347.5,201.5 Z"
       id="path40" />
  </g>
  <g
     id="g41">
    <path
       style="opacity:0.082"
       fill="#ededed"
       d="M 407.5,193.5 C 407.5,197.833 407.5,202.167 407.5,206.5C 408.5,206.5 409.5,206.5 410.5,206.5C 410.5,205.167 410.5,203.833 410.5,202.5C 410.833,202.5 411.167,202.5 411.5,202.5C 411.5,204.167 411.5,205.833 411.5,207.5C 409.833,207.5 408.167,207.5 406.5,207.5C 406.181,202.637 406.514,197.97 407.5,193.5 Z"
       id="path41" />
  </g>
  <g
     id="g42">
    <path
       style="opacity:0.122"
       fill="#c6c6c6"
       d="M 401.5,202.5 C 402.043,202.56 402.376,202.893 402.5,203.5C 400.701,204.788 399.035,204.788 397.5,203.5C 399.099,203.768 400.432,203.434 401.5,202.5 Z"
       id="path42" />
  </g>
  <g
     id="g43">
    <path
       style="opacity:0.035"
       fill="#bdbdbd"
       d="M 416.5,202.5 C 416.38,203.586 415.713,204.253 414.5,204.5C 413.584,204.457 412.917,204.124 412.5,203.5C 413.959,203.567 415.292,203.234 416.5,202.5 Z"
       id="path43" />
  </g>
  <g
     id="g44">
    <path
       style="opacity:0.271"
       fill="#b6b6b6"
       d="M 298.5,203.5 C 300.027,203.427 301.027,204.094 301.5,205.5C 299.973,205.573 298.973,204.906 298.5,203.5 Z"
       id="path44" />
  </g>
  <g
     id="g45">
    <path
       style="opacity:0.349"
       fill="#a1a1a1"
       d="M 350.5,203.5 C 352.027,203.427 353.027,204.094 353.5,205.5C 351.973,205.573 350.973,204.906 350.5,203.5 Z"
       id="path45" />
  </g>
  <g
     id="g46">
    <path
       style="opacity:0.29"
       fill="#cccccc"
       d="M 395.5,203.5 C 395.557,204.609 395.89,205.609 396.5,206.5C 394.448,205.947 394.115,204.947 395.5,203.5 Z"
       id="path46" />
  </g>
  <g
     id="g47">
    <path
       style="opacity:0.773"
       fill="#4c4c4c"
       d="M 421.5,193.5 C 421.818,198.032 421.485,202.366 420.5,206.5C 420.824,202.445 420.491,198.445 419.5,194.5C 418.817,194.863 418.15,195.196 417.5,195.5C 418.183,193.824 419.517,193.157 421.5,193.5 Z"
       id="path47" />
  </g>
  <g
     id="g48">
    <path
       style="opacity:0.969"
       fill="#737373"
       d="M 353.5,205.5 C 359.797,206.32 366.131,206.653 372.5,206.5C 366.057,209.194 359.724,208.861 353.5,205.5 Z"
       id="path48" />
  </g>
  <g
     id="g49">
    <path
       style="opacity:1"
       fill="#9dbc4a"
       d="M 515.5,289.5 C 515.557,295.6 514.224,301.266 511.5,306.5C 512.494,300.604 513.327,294.604 514,288.5C 514.5,265.836 514.667,243.169 514.5,220.5C 507.167,220.5 499.833,220.5 492.5,220.5C 493.156,243.192 492.489,265.525 490.5,287.5C 490.5,264.5 490.5,241.5 490.5,218.5C 498.833,218.5 507.167,218.5 515.5,218.5C 515.5,242.167 515.5,265.833 515.5,289.5 Z"
       id="path49" />
  </g>
  <g
     id="g50">
    <path
       style="opacity:0.471"
       fill="#d4e8a1"
       d="M 515.5,289.5 C 515.5,265.833 515.5,242.167 515.5,218.5C 507.167,218.5 498.833,218.5 490.5,218.5C 490.5,241.5 490.5,264.5 490.5,287.5C 489.833,288.5 489.167,289.5 488.5,290.5C 489.451,266.188 489.784,241.855 489.5,217.5C 498.5,217.5 507.5,217.5 516.5,217.5C 516.831,241.672 516.498,265.672 515.5,289.5 Z"
       id="path50" />
  </g>
  <g
     id="g51">
    <path
       style="opacity:1"
       fill="#9ac13d"
       d="M 511.5,306.5 C 510.603,307.598 509.77,307.598 509,306.5C 508.517,307.448 508.351,308.448 508.5,309.5C 505.239,309.1 504.572,310.267 506.5,313C 505.382,315.059 504.715,317.226 504.5,319.5C 500.581,326.088 495.581,331.755 489.5,336.5C 488.844,335.722 488.011,335.056 487,334.5C 485.989,334.892 485.489,335.559 485.5,336.5C 483.983,335.089 482.649,335.256 481.5,337C 482.308,337.308 482.975,337.808 483.5,338.5C 482.726,339.711 481.893,339.711 481,338.5C 480.517,339.448 480.351,340.448 480.5,341.5C 477.833,341.5 475.167,341.5 472.5,341.5C 472.5,342.5 472.5,343.5 472.5,344.5C 468.326,345.901 463.993,346.734 459.5,347C 461.437,347.122 462.77,347.955 463.5,349.5C 458.482,349.939 453.648,349.273 449,347.5C 448.5,347.833 448,348.167 447.5,348.5C 448.729,349.281 450.062,349.781 451.5,350C 428.502,350.5 405.502,350.667 382.5,350.5C 382.5,342.5 382.5,334.5 382.5,326.5C 407.531,326.92 432.531,326.42 457.5,325C 459.588,323.97 461.755,323.137 464,322.5C 465.03,322.164 465.53,321.497 465.5,320.5C 466.514,319.326 467.847,318.66 469.5,318.5C 472.075,319.279 474.408,319.113 476.5,318C 475.044,317.577 474.544,316.744 475,315.5C 477.371,312.794 480.037,310.461 483,308.5C 483.414,308.957 483.914,309.291 484.5,309.5C 485.134,307.433 486.134,305.6 487.5,304C 486.709,301.25 486.709,298.417 487.5,295.5C 487.366,293.708 487.699,292.042 488.5,290.5C 489.167,289.5 489.833,288.5 490.5,287.5C 492.489,265.525 493.156,243.192 492.5,220.5C 499.833,220.5 507.167,220.5 514.5,220.5C 514.667,243.169 514.5,265.836 514,288.5C 513.327,294.604 512.494,300.604 511.5,306.5 Z"
       id="path51" />
  </g>
  <g
     id="g52">
    <path
       style="opacity:1"
       fill="#a8c55c"
       d="M 487.5,295.5 C 486.709,298.417 486.709,301.25 487.5,304C 486.134,305.6 485.134,307.433 484.5,309.5C 483.914,309.291 483.414,308.957 483,308.5C 480.037,310.461 477.371,312.794 475,315.5C 474.544,316.744 475.044,317.577 476.5,318C 474.408,319.113 472.075,319.279 469.5,318.5C 473.104,315.398 476.604,312.065 480,308.5C 482.527,304.104 485.027,299.771 487.5,295.5 Z"
       id="path52" />
  </g>
  <g
     id="g53">
    <path
       style="opacity:1"
       fill="#b4cd6f"
       d="M 511.5,306.5 C 509.926,311.32 507.593,315.653 504.5,319.5C 504.715,317.226 505.382,315.059 506.5,313C 504.572,310.267 505.239,309.1 508.5,309.5C 508.351,308.448 508.517,307.448 509,306.5C 509.77,307.598 510.603,307.598 511.5,306.5 Z"
       id="path53" />
  </g>
  <g
     id="g54">
    <path
       style="opacity:0.649"
       fill="#c1e0dd"
       d="M 226.5,321.5 C 231.287,323.446 236.287,324.613 241.5,325C 279.832,325.5 318.165,325.667 356.5,325.5C 356.5,334.5 356.5,343.5 356.5,352.5C 316.663,352.832 276.996,352.499 237.5,351.5C 276.833,351.5 316.167,351.5 355.5,351.5C 355.5,343.167 355.5,334.833 355.5,326.5C 316.832,326.667 278.165,326.5 239.5,326C 235.162,324.595 230.829,324.428 226.5,325.5C 226.5,324.167 226.5,322.833 226.5,321.5 Z"
       id="path54" />
  </g>
  <g
     id="g55">
    <path
       style="opacity:0.678"
       fill="#cce096"
       d="M 465.5,320.5 C 465.53,321.497 465.03,322.164 464,322.5C 461.755,323.137 459.588,323.97 457.5,325C 432.531,326.42 407.531,326.92 382.5,326.5C 382.5,334.5 382.5,342.5 382.5,350.5C 405.661,351.498 428.994,351.831 452.5,351.5C 429.006,352.498 405.339,352.831 381.5,352.5C 381.5,343.5 381.5,334.5 381.5,325.5C 403.503,325.667 425.503,325.5 447.5,325C 453.802,324.62 459.802,323.12 465.5,320.5 Z"
       id="path55" />
  </g>
  <g
     id="g56">
    <path
       style="opacity:1"
       fill="#aac760"
       d="M 489.5,336.5 C 481.978,342.928 473.311,347.261 463.5,349.5C 462.77,347.955 461.437,347.122 459.5,347C 463.993,346.734 468.326,345.901 472.5,344.5C 472.5,343.5 472.5,342.5 472.5,341.5C 475.167,341.5 477.833,341.5 480.5,341.5C 480.351,340.448 480.517,339.448 481,338.5C 481.893,339.711 482.726,339.711 483.5,338.5C 482.975,337.808 482.308,337.308 481.5,337C 482.649,335.256 483.983,335.089 485.5,336.5C 485.489,335.559 485.989,334.892 487,334.5C 488.011,335.056 488.844,335.722 489.5,336.5 Z"
       id="path56" />
  </g>
  <g
     id="g57">
    <path
       style="opacity:1"
       fill="#9fbe59"
       d="M 463.5,349.5 C 460.124,351.082 456.458,351.749 452.5,351.5C 428.994,351.831 405.661,351.498 382.5,350.5C 405.502,350.667 428.502,350.5 451.5,350C 450.062,349.781 448.729,349.281 447.5,348.5C 448,348.167 448.5,347.833 449,347.5C 453.648,349.273 458.482,349.939 463.5,349.5 Z"
       id="path57" />
  </g>
</svg>
